<?xml version="1.0" encoding="utf-8" standalone="no"?>
<!DOCTYPE svg PUBLIC "-//W3C//DTD SVG 1.1//EN"
  "http://www.w3.org/Graphics/SVG/1.1/DTD/svg11.dtd">
<svg xmlns:xlink="http://www.w3.org/1999/xlink" width="497.132187pt" height="223.92pt" viewBox="0 0 497.132187 223.92" xmlns="http://www.w3.org/2000/svg" version="1.1">
 <metadata>
  <rdf:RDF xmlns:dc="http://purl.org/dc/elements/1.1/" xmlns:cc="http://creativecommons.org/ns#" xmlns:rdf="http://www.w3.org/1999/02/22-rdf-syntax-ns#">
   <cc:Work>
    <dc:type rdf:resource="http://purl.org/dc/dcmitype/StillImage"/>
    <dc:date>2026-06-24T10:09:07.778435</dc:date>
    <dc:format>image/svg+xml</dc:format>
    <dc:creator>
     <cc:Agent>
      <dc:title>Matplotlib v3.11.0, https://matplotlib.org/</dc:title>
     </cc:Agent>
    </dc:creator>
   </cc:Work>
  </rdf:RDF>
 </metadata>
 <defs>
  <style type="text/css">*{stroke-linejoin: round; stroke-linecap: butt}</style>
 </defs>
 <g id="figure_1">
  <g id="patch_1">
   <path d="M 0 223.92 
L 497.132187 223.92 
L 497.132187 0 
L 0 0 
z
" style="fill: #ffffff"/>
  </g>
  <g id="axes_1">
   <g id="patch_2">
    <path d="M 37.332188 190.72 
L 243.332187 190.72 
L 243.332187 67.98709 
L 37.332188 67.98709 
z
" style="fill: #ffffff"/>
   </g>
   <g id="matplotlib.axis_1">
    <g id="xtick_1">
     <g id="line2d_1">
      <defs>
       <path id="mf4d91ace84" d="M 0 0 
L 0 3.5 
" style="stroke: #000000; stroke-width: 0.8"/>
      </defs>
      <g>
       <use xlink:href="#mf4d91ace84" x="48.776632" y="190.72" style="stroke: #000000; stroke-width: 0.8"/>
      </g>
     </g>
     <g id="text_1">
      <!-- 2 -->
      <g transform="translate(46.549757 203.038359) scale(0.07 -0.07)">
       <defs>
        <path id="DejaVuSans-15" d="M 1228 531 
L 3431 531 
L 3431 0 
L 469 0 
L 469 531 
Q 828 903 1448 1529 
Q 2069 2156 2228 2338 
Q 2531 2678 2651 2914 
Q 2772 3150 2772 3378 
Q 2772 3750 2511 3984 
Q 2250 4219 1831 4219 
Q 1534 4219 1204 4116 
Q 875 4013 500 3803 
L 500 4441 
Q 881 4594 1212 4672 
Q 1544 4750 1819 4750 
Q 2544 4750 2975 4387 
Q 3406 4025 3406 3419 
Q 3406 3131 3298 2873 
Q 3191 2616 2906 2266 
Q 2828 2175 2409 1742 
Q 1991 1309 1228 531 
z
" transform="scale(0.015625)"/>
       </defs>
       <use xlink:href="#DejaVuSans-15"/>
      </g>
     </g>
    </g>
    <g id="xtick_2">
     <g id="line2d_2">
      <g>
       <use xlink:href="#mf4d91ace84" x="71.665521" y="190.72" style="stroke: #000000; stroke-width: 0.8"/>
      </g>
     </g>
     <g id="text_2">
      <!-- 3 -->
      <g transform="translate(69.438646 203.038359) scale(0.07 -0.07)">
       <defs>
        <path id="DejaVuSans-16" d="M 2597 2516 
Q 3050 2419 3304 2112 
Q 3559 1806 3559 1356 
Q 3559 666 3084 287 
Q 2609 -91 1734 -91 
Q 1441 -91 1130 -33 
Q 819 25 488 141 
L 488 750 
Q 750 597 1062 519 
Q 1375 441 1716 441 
Q 2309 441 2620 675 
Q 2931 909 2931 1356 
Q 2931 1769 2642 2001 
Q 2353 2234 1838 2234 
L 1294 2234 
L 1294 2753 
L 1863 2753 
Q 2328 2753 2575 2939 
Q 2822 3125 2822 3475 
Q 2822 3834 2567 4026 
Q 2313 4219 1838 4219 
Q 1578 4219 1281 4162 
Q 984 4106 628 3988 
L 628 4550 
Q 988 4650 1302 4700 
Q 1616 4750 1894 4750 
Q 2613 4750 3031 4423 
Q 3450 4097 3450 3541 
Q 3450 3153 3228 2886 
Q 3006 2619 2597 2516 
z
" transform="scale(0.015625)"/>
       </defs>
       <use xlink:href="#DejaVuSans-16"/>
      </g>
     </g>
    </g>
    <g id="xtick_3">
     <g id="line2d_3">
      <g>
       <use xlink:href="#mf4d91ace84" x="94.55441" y="190.72" style="stroke: #000000; stroke-width: 0.8"/>
      </g>
     </g>
     <g id="text_3">
      <!-- 4 -->
      <g transform="translate(92.327535 203.038359) scale(0.07 -0.07)">
       <defs>
        <path id="DejaVuSans-17" d="M 2419 4116 
L 825 1625 
L 2419 1625 
L 2419 4116 
z
M 2253 4666 
L 3047 4666 
L 3047 1625 
L 3713 1625 
L 3713 1100 
L 3047 1100 
L 3047 0 
L 2419 0 
L 2419 1100 
L 313 1100 
L 313 1709 
L 2253 4666 
z
" transform="scale(0.015625)"/>
       </defs>
       <use xlink:href="#DejaVuSans-17"/>
      </g>
     </g>
    </g>
    <g id="xtick_4">
     <g id="line2d_4">
      <g>
       <use xlink:href="#mf4d91ace84" x="117.443299" y="190.72" style="stroke: #000000; stroke-width: 0.8"/>
      </g>
     </g>
     <g id="text_4">
      <!-- 5 -->
      <g transform="translate(115.216424 203.038359) scale(0.07 -0.07)">
       <defs>
        <path id="DejaVuSans-18" d="M 691 4666 
L 3169 4666 
L 3169 4134 
L 1269 4134 
L 1269 2991 
Q 1406 3038 1543 3061 
Q 1681 3084 1819 3084 
Q 2600 3084 3056 2656 
Q 3513 2228 3513 1497 
Q 3513 744 3044 326 
Q 2575 -91 1722 -91 
Q 1428 -91 1123 -41 
Q 819 9 494 109 
L 494 744 
Q 775 591 1075 516 
Q 1375 441 1709 441 
Q 2250 441 2565 725 
Q 2881 1009 2881 1497 
Q 2881 1984 2565 2268 
Q 2250 2553 1709 2553 
Q 1456 2553 1204 2497 
Q 953 2441 691 2322 
L 691 4666 
z
" transform="scale(0.015625)"/>
       </defs>
       <use xlink:href="#DejaVuSans-18"/>
      </g>
     </g>
    </g>
    <g id="xtick_5">
     <g id="line2d_5">
      <g>
       <use xlink:href="#mf4d91ace84" x="140.332187" y="190.72" style="stroke: #000000; stroke-width: 0.8"/>
      </g>
     </g>
     <g id="text_5">
      <!-- 6 -->
      <g transform="translate(138.105312 203.038359) scale(0.07 -0.07)">
       <defs>
        <path id="DejaVuSans-19" d="M 2113 2584 
Q 1688 2584 1439 2293 
Q 1191 2003 1191 1497 
Q 1191 994 1439 701 
Q 1688 409 2113 409 
Q 2538 409 2786 701 
Q 3034 994 3034 1497 
Q 3034 2003 2786 2293 
Q 2538 2584 2113 2584 
z
M 3366 4563 
L 3366 3988 
Q 3128 4100 2886 4159 
Q 2644 4219 2406 4219 
Q 1781 4219 1451 3797 
Q 1122 3375 1075 2522 
Q 1259 2794 1537 2939 
Q 1816 3084 2150 3084 
Q 2853 3084 3261 2657 
Q 3669 2231 3669 1497 
Q 3669 778 3244 343 
Q 2819 -91 2113 -91 
Q 1303 -91 875 529 
Q 447 1150 447 2328 
Q 447 3434 972 4092 
Q 1497 4750 2381 4750 
Q 2619 4750 2861 4703 
Q 3103 4656 3366 4563 
z
" transform="scale(0.015625)"/>
       </defs>
       <use xlink:href="#DejaVuSans-19"/>
      </g>
     </g>
    </g>
    <g id="xtick_6">
     <g id="line2d_6">
      <g>
       <use xlink:href="#mf4d91ace84" x="163.221076" y="190.72" style="stroke: #000000; stroke-width: 0.8"/>
      </g>
     </g>
     <g id="text_6">
      <!-- 7 -->
      <g transform="translate(160.994201 203.038359) scale(0.07 -0.07)">
       <defs>
        <path id="DejaVuSans-1a" d="M 525 4666 
L 3525 4666 
L 3525 4397 
L 1831 0 
L 1172 0 
L 2766 4134 
L 525 4134 
L 525 4666 
z
" transform="scale(0.015625)"/>
       </defs>
       <use xlink:href="#DejaVuSans-1a"/>
      </g>
     </g>
    </g>
    <g id="xtick_7">
     <g id="line2d_7">
      <g>
       <use xlink:href="#mf4d91ace84" x="186.109965" y="190.72" style="stroke: #000000; stroke-width: 0.8"/>
      </g>
     </g>
     <g id="text_7">
      <!-- 8 -->
      <g transform="translate(183.88309 203.038359) scale(0.07 -0.07)">
       <defs>
        <path id="DejaVuSans-1b" d="M 2034 2216 
Q 1584 2216 1326 1975 
Q 1069 1734 1069 1313 
Q 1069 891 1326 650 
Q 1584 409 2034 409 
Q 2484 409 2743 651 
Q 3003 894 3003 1313 
Q 3003 1734 2745 1975 
Q 2488 2216 2034 2216 
z
M 1403 2484 
Q 997 2584 770 2862 
Q 544 3141 544 3541 
Q 544 4100 942 4425 
Q 1341 4750 2034 4750 
Q 2731 4750 3128 4425 
Q 3525 4100 3525 3541 
Q 3525 3141 3298 2862 
Q 3072 2584 2669 2484 
Q 3125 2378 3379 2068 
Q 3634 1759 3634 1313 
Q 3634 634 3220 271 
Q 2806 -91 2034 -91 
Q 1263 -91 848 271 
Q 434 634 434 1313 
Q 434 1759 690 2068 
Q 947 2378 1403 2484 
z
M 1172 3481 
Q 1172 3119 1398 2916 
Q 1625 2713 2034 2713 
Q 2441 2713 2670 2916 
Q 2900 3119 2900 3481 
Q 2900 3844 2670 4047 
Q 2441 4250 2034 4250 
Q 1625 4250 1398 4047 
Q 1172 3844 1172 3481 
z
" transform="scale(0.015625)"/>
       </defs>
       <use xlink:href="#DejaVuSans-1b"/>
      </g>
     </g>
    </g>
    <g id="xtick_8">
     <g id="line2d_8">
      <g>
       <use xlink:href="#mf4d91ace84" x="208.998854" y="190.72" style="stroke: #000000; stroke-width: 0.8"/>
      </g>
     </g>
     <g id="text_8">
      <!-- 9 -->
      <g transform="translate(206.771979 203.038359) scale(0.07 -0.07)">
       <defs>
        <path id="DejaVuSans-1c" d="M 703 97 
L 703 672 
Q 941 559 1184 500 
Q 1428 441 1663 441 
Q 2288 441 2617 861 
Q 2947 1281 2994 2138 
Q 2813 1869 2534 1725 
Q 2256 1581 1919 1581 
Q 1219 1581 811 2004 
Q 403 2428 403 3163 
Q 403 3881 828 4315 
Q 1253 4750 1959 4750 
Q 2769 4750 3195 4129 
Q 3622 3509 3622 2328 
Q 3622 1225 3098 567 
Q 2575 -91 1691 -91 
Q 1453 -91 1209 -44 
Q 966 3 703 97 
z
M 1959 2075 
Q 2384 2075 2632 2365 
Q 2881 2656 2881 3163 
Q 2881 3666 2632 3958 
Q 2384 4250 1959 4250 
Q 1534 4250 1286 3958 
Q 1038 3666 1038 3163 
Q 1038 2656 1286 2365 
Q 1534 2075 1959 2075 
z
" transform="scale(0.015625)"/>
       </defs>
       <use xlink:href="#DejaVuSans-1c"/>
      </g>
     </g>
    </g>
    <g id="xtick_9">
     <g id="line2d_9">
      <g>
       <use xlink:href="#mf4d91ace84" x="231.887743" y="190.72" style="stroke: #000000; stroke-width: 0.8"/>
      </g>
     </g>
     <g id="text_9">
      <!-- 10 -->
      <g transform="translate(227.433993 203.038359) scale(0.07 -0.07)">
       <defs>
        <path id="DejaVuSans-14" d="M 794 531 
L 1825 531 
L 1825 4091 
L 703 3866 
L 703 4441 
L 1819 4666 
L 2450 4666 
L 2450 531 
L 3481 531 
L 3481 0 
L 794 0 
L 794 531 
z
" transform="scale(0.015625)"/>
        <path id="DejaVuSans-13" d="M 2034 4250 
Q 1547 4250 1301 3770 
Q 1056 3291 1056 2328 
Q 1056 1369 1301 889 
Q 1547 409 2034 409 
Q 2525 409 2770 889 
Q 3016 1369 3016 2328 
Q 3016 3291 2770 3770 
Q 2525 4250 2034 4250 
z
M 2034 4750 
Q 2819 4750 3233 4129 
Q 3647 3509 3647 2328 
Q 3647 1150 3233 529 
Q 2819 -91 2034 -91 
Q 1250 -91 836 529 
Q 422 1150 422 2328 
Q 422 3509 836 4129 
Q 1250 4750 2034 4750 
z
" transform="scale(0.015625)"/>
       </defs>
       <use xlink:href="#DejaVuSans-14"/>
       <use xlink:href="#DejaVuSans-13" transform="translate(63.625 0)"/>
      </g>
     </g>
    </g>
    <g id="text_10">
     <!-- x -->
     <g transform="translate(137.964687 214.798125) scale(0.08 -0.08)">
      <defs>
       <path id="DejaVuSans-5b" d="M 3513 3500 
L 2247 1797 
L 3578 0 
L 2900 0 
L 1881 1375 
L 863 0 
L 184 0 
L 1544 1831 
L 300 3500 
L 978 3500 
L 1906 2253 
L 2834 3500 
L 3513 3500 
z
" transform="scale(0.015625)"/>
      </defs>
      <use xlink:href="#DejaVuSans-5b"/>
     </g>
    </g>
   </g>
   <g id="matplotlib.axis_2">
    <g id="ytick_1">
     <g id="line2d_10">
      <defs>
       <path id="m163f299e00" d="M 0 0 
L -3.5 0 
" style="stroke: #000000; stroke-width: 0.8"/>
      </defs>
      <g>
       <use xlink:href="#m163f299e00" x="37.332188" y="188.425927" style="stroke: #000000; stroke-width: 0.8"/>
      </g>
     </g>
     <g id="text_11">
      <!-- 0.0 -->
      <g transform="translate(19.2 191.085107) scale(0.07 -0.07)">
       <defs>
        <path id="DejaVuSans-11" d="M 684 794 
L 1344 794 
L 1344 0 
L 684 0 
L 684 794 
z
" transform="scale(0.015625)"/>
       </defs>
       <use xlink:href="#DejaVuSans-13"/>
       <use xlink:href="#DejaVuSans-11" transform="translate(63.625 0)"/>
       <use xlink:href="#DejaVuSans-13" transform="translate(95.40625 0)"/>
      </g>
     </g>
    </g>
    <g id="ytick_2">
     <g id="line2d_11">
      <g>
       <use xlink:href="#m163f299e00" x="37.332188" y="165.485196" style="stroke: #000000; stroke-width: 0.8"/>
      </g>
     </g>
     <g id="text_12">
      <!-- 0.2 -->
      <g transform="translate(19.2 168.144376) scale(0.07 -0.07)">
       <use xlink:href="#DejaVuSans-13"/>
       <use xlink:href="#DejaVuSans-11" transform="translate(63.625 0)"/>
       <use xlink:href="#DejaVuSans-15" transform="translate(95.40625 0)"/>
      </g>
     </g>
    </g>
    <g id="ytick_3">
     <g id="line2d_12">
      <g>
       <use xlink:href="#m163f299e00" x="37.332188" y="142.544465" style="stroke: #000000; stroke-width: 0.8"/>
      </g>
     </g>
     <g id="text_13">
      <!-- 0.4 -->
      <g transform="translate(19.2 145.203645) scale(0.07 -0.07)">
       <use xlink:href="#DejaVuSans-13"/>
       <use xlink:href="#DejaVuSans-11" transform="translate(63.625 0)"/>
       <use xlink:href="#DejaVuSans-17" transform="translate(95.40625 0)"/>
      </g>
     </g>
    </g>
    <g id="ytick_4">
     <g id="line2d_13">
      <g>
       <use xlink:href="#m163f299e00" x="37.332188" y="119.603734" style="stroke: #000000; stroke-width: 0.8"/>
      </g>
     </g>
     <g id="text_14">
      <!-- 0.6 -->
      <g transform="translate(19.2 122.262914) scale(0.07 -0.07)">
       <use xlink:href="#DejaVuSans-13"/>
       <use xlink:href="#DejaVuSans-11" transform="translate(63.625 0)"/>
       <use xlink:href="#DejaVuSans-19" transform="translate(95.40625 0)"/>
      </g>
     </g>
    </g>
    <g id="ytick_5">
     <g id="line2d_14">
      <g>
       <use xlink:href="#m163f299e00" x="37.332188" y="96.663003" style="stroke: #000000; stroke-width: 0.8"/>
      </g>
     </g>
     <g id="text_15">
      <!-- 0.8 -->
      <g transform="translate(19.2 99.322183) scale(0.07 -0.07)">
       <use xlink:href="#DejaVuSans-13"/>
       <use xlink:href="#DejaVuSans-11" transform="translate(63.625 0)"/>
       <use xlink:href="#DejaVuSans-1b" transform="translate(95.40625 0)"/>
      </g>
     </g>
    </g>
    <g id="ytick_6">
     <g id="line2d_15">
      <g>
       <use xlink:href="#m163f299e00" x="37.332188" y="73.722273" style="stroke: #000000; stroke-width: 0.8"/>
      </g>
     </g>
     <g id="text_16">
      <!-- 1.0 -->
      <g transform="translate(19.2 76.381452) scale(0.07 -0.07)">
       <use xlink:href="#DejaVuSans-14"/>
       <use xlink:href="#DejaVuSans-11" transform="translate(63.625 0)"/>
       <use xlink:href="#DejaVuSans-13" transform="translate(95.40625 0)"/>
      </g>
     </g>
    </g>
    <g id="text_17">
     <!-- F(x) -->
     <g transform="translate(13.278125 137.14292) rotate(-90) scale(0.08 -0.08)">
      <defs>
       <path id="DejaVuSans-29" d="M 628 4666 
L 3309 4666 
L 3309 4134 
L 1259 4134 
L 1259 2759 
L 3109 2759 
L 3109 2228 
L 1259 2228 
L 1259 0 
L 628 0 
L 628 4666 
z
" transform="scale(0.015625)"/>
       <path id="DejaVuSans-b" d="M 1984 4856 
Q 1566 4138 1362 3434 
Q 1159 2731 1159 2009 
Q 1159 1288 1364 580 
Q 1569 -128 1984 -844 
L 1484 -844 
Q 1016 -109 783 600 
Q 550 1309 550 2009 
Q 550 2706 781 3412 
Q 1013 4119 1484 4856 
L 1984 4856 
z
" transform="scale(0.015625)"/>
       <path id="DejaVuSans-c" d="M 513 4856 
L 1013 4856 
Q 1481 4119 1714 3412 
Q 1947 2706 1947 2009 
Q 1947 1309 1714 600 
Q 1481 -109 1013 -844 
L 513 -844 
Q 928 -128 1133 580 
Q 1338 1288 1338 2009 
Q 1338 2731 1133 3434 
Q 928 4138 513 4856 
z
" transform="scale(0.015625)"/>
      </defs>
      <use xlink:href="#DejaVuSans-29"/>
      <use xlink:href="#DejaVuSans-b" transform="translate(57.515625 0)"/>
      <use xlink:href="#DejaVuSans-5b" transform="translate(96.53125 0)"/>
      <use xlink:href="#DejaVuSans-c" transform="translate(155.71875 0)"/>
     </g>
    </g>
   </g>
   <g id="LineCollection_1">
    <path d="M 62.509965 165.485196 
L 80.821076 165.485196 
" clip-path="url(#p6841f231a8)" style="fill: none; stroke: #2166ac; stroke-width: 2.5"/>
   </g>
   <g id="LineCollection_2">
    <path d="M 71.665521 188.425927 
L 71.665521 165.485196 
" clip-path="url(#p6841f231a8)" style="fill: none; stroke-dasharray: 3.7,1.6; stroke-dashoffset: 0; stroke: #2166ac; stroke-opacity: 0.5"/>
   </g>
   <g id="LineCollection_3">
    <path d="M 85.398854 154.014831 
L 103.709965 154.014831 
" clip-path="url(#p6841f231a8)" style="fill: none; stroke: #2166ac; stroke-width: 2.5"/>
   </g>
   <g id="LineCollection_4">
    <path d="M 94.55441 165.485196 
L 94.55441 154.014831 
" clip-path="url(#p6841f231a8)" style="fill: none; stroke-dasharray: 3.7,1.6; stroke-dashoffset: 0; stroke: #2166ac; stroke-opacity: 0.5"/>
   </g>
   <g id="LineCollection_5">
    <path d="M 131.176632 142.544465 
L 149.487743 142.544465 
" clip-path="url(#p6841f231a8)" style="fill: none; stroke: #2166ac; stroke-width: 2.5"/>
   </g>
   <g id="LineCollection_6">
    <path d="M 140.332187 154.014831 
L 140.332187 142.544465 
" clip-path="url(#p6841f231a8)" style="fill: none; stroke-dasharray: 3.7,1.6; stroke-dashoffset: 0; stroke: #2166ac; stroke-opacity: 0.5"/>
   </g>
   <g id="LineCollection_7">
    <path d="M 154.065521 108.133369 
L 172.376632 108.133369 
" clip-path="url(#p6841f231a8)" style="fill: none; stroke: #2166ac; stroke-width: 2.5"/>
   </g>
   <g id="LineCollection_8">
    <path d="M 163.221076 142.544465 
L 163.221076 108.133369 
" clip-path="url(#p6841f231a8)" style="fill: none; stroke-dasharray: 3.7,1.6; stroke-dashoffset: 0; stroke: #2166ac; stroke-opacity: 0.5"/>
   </g>
   <g id="LineCollection_9">
    <path d="M 176.95441 85.192638 
L 195.265521 85.192638 
" clip-path="url(#p6841f231a8)" style="fill: none; stroke: #2166ac; stroke-width: 2.5"/>
   </g>
   <g id="LineCollection_10">
    <path d="M 186.109965 108.133369 
L 186.109965 85.192638 
" clip-path="url(#p6841f231a8)" style="fill: none; stroke-dasharray: 3.7,1.6; stroke-dashoffset: 0; stroke: #2166ac; stroke-opacity: 0.5"/>
   </g>
   <g id="LineCollection_11">
    <path d="M 199.843299 73.722273 
L 218.15441 73.722273 
" clip-path="url(#p6841f231a8)" style="fill: none; stroke: #2166ac; stroke-width: 2.5"/>
   </g>
   <g id="LineCollection_12">
    <path d="M 208.998854 85.192638 
L 208.998854 73.722273 
" clip-path="url(#p6841f231a8)" style="fill: none; stroke-dasharray: 3.7,1.6; stroke-dashoffset: 0; stroke: #2166ac; stroke-opacity: 0.5"/>
   </g>
   <g id="patch_3">
    <path d="M 37.332188 190.72 
L 37.332188 67.98709 
" style="fill: none; stroke: #000000; stroke-width: 0.8; stroke-linejoin: miter; stroke-linecap: square"/>
   </g>
   <g id="patch_4">
    <path d="M 37.332188 190.72 
L 243.332187 190.72 
" style="fill: none; stroke: #000000; stroke-width: 0.8; stroke-linejoin: miter; stroke-linecap: square"/>
   </g>
   <g id="text_18">
    <!-- p=0.20 -->
    <g style="fill: #333333" transform="translate(59.642552 178.644038) scale(0.065 -0.065)">
     <defs>
      <path id="DejaVuSans-53" d="M 1159 525 
L 1159 -1331 
L 581 -1331 
L 581 3500 
L 1159 3500 
L 1159 2969 
Q 1341 3281 1617 3432 
Q 1894 3584 2278 3584 
Q 2916 3584 3314 3078 
Q 3713 2572 3713 1747 
Q 3713 922 3314 415 
Q 2916 -91 2278 -91 
Q 1894 -91 1617 61 
Q 1341 213 1159 525 
z
M 3116 1747 
Q 3116 2381 2855 2742 
Q 2594 3103 2138 3103 
Q 1681 3103 1420 2742 
Q 1159 2381 1159 1747 
Q 1159 1113 1420 752 
Q 1681 391 2138 391 
Q 2594 391 2855 752 
Q 3116 1113 3116 1747 
z
" transform="scale(0.015625)"/>
      <path id="DejaVuSans-20" d="M 678 2906 
L 4684 2906 
L 4684 2381 
L 678 2381 
L 678 2906 
z
M 678 1631 
L 4684 1631 
L 4684 1100 
L 678 1100 
L 678 1631 
z
" transform="scale(0.015625)"/>
     </defs>
     <use xlink:href="#DejaVuSans-53"/>
     <use xlink:href="#DejaVuSans-20" transform="translate(63.484375 0)"/>
     <use xlink:href="#DejaVuSans-13" transform="translate(147.28125 0)"/>
     <use xlink:href="#DejaVuSans-11" transform="translate(210.90625 0)"/>
     <use xlink:href="#DejaVuSans-15" transform="translate(242.6875 0)"/>
     <use xlink:href="#DejaVuSans-13" transform="translate(306.3125 0)"/>
    </g>
   </g>
   <g id="text_19">
    <!-- p=0.10 -->
    <g style="fill: #333333" transform="translate(82.531441 161.43849) scale(0.065 -0.065)">
     <use xlink:href="#DejaVuSans-53"/>
     <use xlink:href="#DejaVuSans-20" transform="translate(63.484375 0)"/>
     <use xlink:href="#DejaVuSans-13" transform="translate(147.28125 0)"/>
     <use xlink:href="#DejaVuSans-11" transform="translate(210.90625 0)"/>
     <use xlink:href="#DejaVuSans-14" transform="translate(242.6875 0)"/>
     <use xlink:href="#DejaVuSans-13" transform="translate(306.3125 0)"/>
    </g>
   </g>
   <g id="text_20">
    <!-- p=0.10 -->
    <g style="fill: #333333" transform="translate(128.309219 149.968124) scale(0.065 -0.065)">
     <use xlink:href="#DejaVuSans-53"/>
     <use xlink:href="#DejaVuSans-20" transform="translate(63.484375 0)"/>
     <use xlink:href="#DejaVuSans-13" transform="translate(147.28125 0)"/>
     <use xlink:href="#DejaVuSans-11" transform="translate(210.90625 0)"/>
     <use xlink:href="#DejaVuSans-14" transform="translate(242.6875 0)"/>
     <use xlink:href="#DejaVuSans-13" transform="translate(306.3125 0)"/>
    </g>
   </g>
   <g id="text_21">
    <!-- p=0.30 -->
    <g style="fill: #333333" transform="translate(151.198108 127.027394) scale(0.065 -0.065)">
     <use xlink:href="#DejaVuSans-53"/>
     <use xlink:href="#DejaVuSans-20" transform="translate(63.484375 0)"/>
     <use xlink:href="#DejaVuSans-13" transform="translate(147.28125 0)"/>
     <use xlink:href="#DejaVuSans-11" transform="translate(210.90625 0)"/>
     <use xlink:href="#DejaVuSans-16" transform="translate(242.6875 0)"/>
     <use xlink:href="#DejaVuSans-13" transform="translate(306.3125 0)"/>
    </g>
   </g>
   <g id="text_22">
    <!-- p=0.20 -->
    <g style="fill: #333333" transform="translate(174.086997 98.35148) scale(0.065 -0.065)">
     <use xlink:href="#DejaVuSans-53"/>
     <use xlink:href="#DejaVuSans-20" transform="translate(63.484375 0)"/>
     <use xlink:href="#DejaVuSans-13" transform="translate(147.28125 0)"/>
     <use xlink:href="#DejaVuSans-11" transform="translate(210.90625 0)"/>
     <use xlink:href="#DejaVuSans-15" transform="translate(242.6875 0)"/>
     <use xlink:href="#DejaVuSans-13" transform="translate(306.3125 0)"/>
    </g>
   </g>
   <g id="text_23">
    <!-- p=0.10 -->
    <g style="fill: #333333" transform="translate(196.975885 81.145932) scale(0.065 -0.065)">
     <use xlink:href="#DejaVuSans-53"/>
     <use xlink:href="#DejaVuSans-20" transform="translate(63.484375 0)"/>
     <use xlink:href="#DejaVuSans-13" transform="translate(147.28125 0)"/>
     <use xlink:href="#DejaVuSans-11" transform="translate(210.90625 0)"/>
     <use xlink:href="#DejaVuSans-14" transform="translate(242.6875 0)"/>
     <use xlink:href="#DejaVuSans-13" transform="translate(306.3125 0)"/>
    </g>
   </g>
   <g id="text_24">
    <!-- Read p from jump height at each value -->
    <g style="fill: #333333" transform="translate(45.572187 77.367905) scale(0.075 -0.075)">
     <defs>
      <path id="DejaVuSans-35" d="M 2841 2188 
Q 3044 2119 3236 1894 
Q 3428 1669 3622 1275 
L 4263 0 
L 3584 0 
L 2988 1197 
Q 2756 1666 2539 1819 
Q 2322 1972 1947 1972 
L 1259 1972 
L 1259 0 
L 628 0 
L 628 4666 
L 2053 4666 
Q 2853 4666 3247 4331 
Q 3641 3997 3641 3322 
Q 3641 2881 3436 2590 
Q 3231 2300 2841 2188 
z
M 1259 4147 
L 1259 2491 
L 2053 2491 
Q 2509 2491 2742 2702 
Q 2975 2913 2975 3322 
Q 2975 3731 2742 3939 
Q 2509 4147 2053 4147 
L 1259 4147 
z
" transform="scale(0.015625)"/>
      <path id="DejaVuSans-48" d="M 3597 1894 
L 3597 1613 
L 953 1613 
Q 991 1019 1311 708 
Q 1631 397 2203 397 
Q 2534 397 2845 478 
Q 3156 559 3463 722 
L 3463 178 
Q 3153 47 2828 -22 
Q 2503 -91 2169 -91 
Q 1331 -91 842 396 
Q 353 884 353 1716 
Q 353 2575 817 3079 
Q 1281 3584 2069 3584 
Q 2775 3584 3186 3129 
Q 3597 2675 3597 1894 
z
M 3022 2063 
Q 3016 2534 2758 2815 
Q 2500 3097 2075 3097 
Q 1594 3097 1305 2825 
Q 1016 2553 972 2059 
L 3022 2063 
z
" transform="scale(0.015625)"/>
      <path id="DejaVuSans-44" d="M 2194 1759 
Q 1497 1759 1228 1600 
Q 959 1441 959 1056 
Q 959 750 1161 570 
Q 1363 391 1709 391 
Q 2188 391 2477 730 
Q 2766 1069 2766 1631 
L 2766 1759 
L 2194 1759 
z
M 3341 1997 
L 3341 0 
L 2766 0 
L 2766 531 
Q 2569 213 2275 61 
Q 1981 -91 1556 -91 
Q 1019 -91 701 211 
Q 384 513 384 1019 
Q 384 1609 779 1909 
Q 1175 2209 1959 2209 
L 2766 2209 
L 2766 2266 
Q 2766 2663 2505 2880 
Q 2244 3097 1772 3097 
Q 1472 3097 1187 3025 
Q 903 2953 641 2809 
L 641 3341 
Q 956 3463 1253 3523 
Q 1550 3584 1831 3584 
Q 2591 3584 2966 3190 
Q 3341 2797 3341 1997 
z
" transform="scale(0.015625)"/>
      <path id="DejaVuSans-47" d="M 2906 2969 
L 2906 4863 
L 3481 4863 
L 3481 0 
L 2906 0 
L 2906 525 
Q 2725 213 2448 61 
Q 2172 -91 1784 -91 
Q 1150 -91 751 415 
Q 353 922 353 1747 
Q 353 2572 751 3078 
Q 1150 3584 1784 3584 
Q 2172 3584 2448 3432 
Q 2725 3281 2906 2969 
z
M 947 1747 
Q 947 1113 1208 752 
Q 1469 391 1925 391 
Q 2381 391 2643 752 
Q 2906 1113 2906 1747 
Q 2906 2381 2643 2742 
Q 2381 3103 1925 3103 
Q 1469 3103 1208 2742 
Q 947 2381 947 1747 
z
" transform="scale(0.015625)"/>
      <path id="DejaVuSans-3" transform="scale(0.015625)"/>
      <path id="DejaVuSans-49" d="M 2375 4863 
L 2375 4384 
L 1825 4384 
Q 1516 4384 1395 4259 
Q 1275 4134 1275 3809 
L 1275 3500 
L 2222 3500 
L 2222 3053 
L 1275 3053 
L 1275 0 
L 697 0 
L 697 3053 
L 147 3053 
L 147 3500 
L 697 3500 
L 697 3744 
Q 697 4328 969 4595 
Q 1241 4863 1831 4863 
L 2375 4863 
z
" transform="scale(0.015625)"/>
      <path id="DejaVuSans-55" d="M 2631 2963 
Q 2534 3019 2420 3045 
Q 2306 3072 2169 3072 
Q 1681 3072 1420 2755 
Q 1159 2438 1159 1844 
L 1159 0 
L 581 0 
L 581 3500 
L 1159 3500 
L 1159 2956 
Q 1341 3275 1631 3429 
Q 1922 3584 2338 3584 
Q 2397 3584 2469 3576 
Q 2541 3569 2628 3553 
L 2631 2963 
z
" transform="scale(0.015625)"/>
      <path id="DejaVuSans-52" d="M 1959 3097 
Q 1497 3097 1228 2736 
Q 959 2375 959 1747 
Q 959 1119 1226 758 
Q 1494 397 1959 397 
Q 2419 397 2687 759 
Q 2956 1122 2956 1747 
Q 2956 2369 2687 2733 
Q 2419 3097 1959 3097 
z
M 1959 3584 
Q 2709 3584 3137 3096 
Q 3566 2609 3566 1747 
Q 3566 888 3137 398 
Q 2709 -91 1959 -91 
Q 1206 -91 779 398 
Q 353 888 353 1747 
Q 353 2609 779 3096 
Q 1206 3584 1959 3584 
z
" transform="scale(0.015625)"/>
      <path id="DejaVuSans-50" d="M 3328 2828 
Q 3544 3216 3844 3400 
Q 4144 3584 4550 3584 
Q 5097 3584 5394 3201 
Q 5691 2819 5691 2113 
L 5691 0 
L 5113 0 
L 5113 2094 
Q 5113 2597 4934 2840 
Q 4756 3084 4391 3084 
Q 3944 3084 3684 2787 
Q 3425 2491 3425 1978 
L 3425 0 
L 2847 0 
L 2847 2094 
Q 2847 2600 2669 2842 
Q 2491 3084 2119 3084 
Q 1678 3084 1418 2786 
Q 1159 2488 1159 1978 
L 1159 0 
L 581 0 
L 581 3500 
L 1159 3500 
L 1159 2956 
Q 1356 3278 1631 3431 
Q 1906 3584 2284 3584 
Q 2666 3584 2933 3390 
Q 3200 3197 3328 2828 
z
" transform="scale(0.015625)"/>
      <path id="DejaVuSans-4d" d="M 603 3500 
L 1178 3500 
L 1178 -63 
Q 1178 -731 923 -1031 
Q 669 -1331 103 -1331 
L -116 -1331 
L -116 -844 
L 38 -844 
Q 366 -844 484 -692 
Q 603 -541 603 -63 
L 603 3500 
z
M 603 4863 
L 1178 4863 
L 1178 4134 
L 603 4134 
L 603 4863 
z
" transform="scale(0.015625)"/>
      <path id="DejaVuSans-58" d="M 544 1381 
L 544 3500 
L 1119 3500 
L 1119 1403 
Q 1119 906 1312 657 
Q 1506 409 1894 409 
Q 2359 409 2629 706 
Q 2900 1003 2900 1516 
L 2900 3500 
L 3475 3500 
L 3475 0 
L 2900 0 
L 2900 538 
Q 2691 219 2414 64 
Q 2138 -91 1772 -91 
Q 1169 -91 856 284 
Q 544 659 544 1381 
z
M 1991 3584 
L 1991 3584 
z
" transform="scale(0.015625)"/>
      <path id="DejaVuSans-4b" d="M 3513 2113 
L 3513 0 
L 2938 0 
L 2938 2094 
Q 2938 2591 2744 2837 
Q 2550 3084 2163 3084 
Q 1697 3084 1428 2787 
Q 1159 2491 1159 1978 
L 1159 0 
L 581 0 
L 581 4863 
L 1159 4863 
L 1159 2956 
Q 1366 3272 1645 3428 
Q 1925 3584 2291 3584 
Q 2894 3584 3203 3211 
Q 3513 2838 3513 2113 
z
" transform="scale(0.015625)"/>
      <path id="DejaVuSans-4c" d="M 603 3500 
L 1178 3500 
L 1178 0 
L 603 0 
L 603 3500 
z
M 603 4863 
L 1178 4863 
L 1178 4134 
L 603 4134 
L 603 4863 
z
" transform="scale(0.015625)"/>
      <path id="DejaVuSans-4a" d="M 2906 1791 
Q 2906 2416 2648 2759 
Q 2391 3103 1925 3103 
Q 1463 3103 1205 2759 
Q 947 2416 947 1791 
Q 947 1169 1205 825 
Q 1463 481 1925 481 
Q 2391 481 2648 825 
Q 2906 1169 2906 1791 
z
M 3481 434 
Q 3481 -459 3084 -895 
Q 2688 -1331 1869 -1331 
Q 1566 -1331 1297 -1286 
Q 1028 -1241 775 -1147 
L 775 -588 
Q 1028 -725 1275 -790 
Q 1522 -856 1778 -856 
Q 2344 -856 2625 -561 
Q 2906 -266 2906 331 
L 2906 616 
Q 2728 306 2450 153 
Q 2172 0 1784 0 
Q 1141 0 747 490 
Q 353 981 353 1791 
Q 353 2603 747 3093 
Q 1141 3584 1784 3584 
Q 2172 3584 2450 3431 
Q 2728 3278 2906 2969 
L 2906 3500 
L 3481 3500 
L 3481 434 
z
" transform="scale(0.015625)"/>
      <path id="DejaVuSans-57" d="M 1172 4494 
L 1172 3500 
L 2356 3500 
L 2356 3053 
L 1172 3053 
L 1172 1153 
Q 1172 725 1289 603 
Q 1406 481 1766 481 
L 2356 481 
L 2356 0 
L 1766 0 
Q 1100 0 847 248 
Q 594 497 594 1153 
L 594 3053 
L 172 3053 
L 172 3500 
L 594 3500 
L 594 4494 
L 1172 4494 
z
" transform="scale(0.015625)"/>
      <path id="DejaVuSans-46" d="M 3122 3366 
L 3122 2828 
Q 2878 2963 2633 3030 
Q 2388 3097 2138 3097 
Q 1578 3097 1268 2742 
Q 959 2388 959 1747 
Q 959 1106 1268 751 
Q 1578 397 2138 397 
Q 2388 397 2633 464 
Q 2878 531 3122 666 
L 3122 134 
Q 2881 22 2623 -34 
Q 2366 -91 2075 -91 
Q 1284 -91 818 406 
Q 353 903 353 1747 
Q 353 2603 823 3093 
Q 1294 3584 2113 3584 
Q 2378 3584 2631 3529 
Q 2884 3475 3122 3366 
z
" transform="scale(0.015625)"/>
      <path id="DejaVuSans-59" d="M 191 3500 
L 800 3500 
L 1894 563 
L 2988 3500 
L 3597 3500 
L 2284 0 
L 1503 0 
L 191 3500 
z
" transform="scale(0.015625)"/>
      <path id="DejaVuSans-4f" d="M 603 4863 
L 1178 4863 
L 1178 0 
L 603 0 
L 603 4863 
z
" transform="scale(0.015625)"/>
     </defs>
     <use xlink:href="#DejaVuSans-35"/>
     <use xlink:href="#DejaVuSans-48" transform="translate(65 0)"/>
     <use xlink:href="#DejaVuSans-44" transform="translate(126.53125 0)"/>
     <use xlink:href="#DejaVuSans-47" transform="translate(187.8125 0)"/>
     <use xlink:href="#DejaVuSans-3" transform="translate(251.296875 0)"/>
     <use xlink:href="#DejaVuSans-53" transform="translate(283.078125 0)"/>
     <use xlink:href="#DejaVuSans-3" transform="translate(346.5625 0)"/>
     <use xlink:href="#DejaVuSans-49" transform="translate(378.34375 0)"/>
     <use xlink:href="#DejaVuSans-55" transform="translate(413.546875 0)"/>
     <use xlink:href="#DejaVuSans-52" transform="translate(452.453125 0)"/>
     <use xlink:href="#DejaVuSans-50" transform="translate(513.640625 0)"/>
     <use xlink:href="#DejaVuSans-3" transform="translate(611.046875 0)"/>
     <use xlink:href="#DejaVuSans-4d" transform="translate(642.828125 0)"/>
     <use xlink:href="#DejaVuSans-58" transform="translate(670.609375 0)"/>
     <use xlink:href="#DejaVuSans-50" transform="translate(733.984375 0)"/>
     <use xlink:href="#DejaVuSans-53" transform="translate(831.390625 0)"/>
     <use xlink:href="#DejaVuSans-3" transform="translate(894.875 0)"/>
     <use xlink:href="#DejaVuSans-4b" transform="translate(926.65625 0)"/>
     <use xlink:href="#DejaVuSans-48" transform="translate(990.03125 0)"/>
     <use xlink:href="#DejaVuSans-4c" transform="translate(1051.5625 0)"/>
     <use xlink:href="#DejaVuSans-4a" transform="translate(1079.34375 0)"/>
     <use xlink:href="#DejaVuSans-4b" transform="translate(1142.828125 0)"/>
     <use xlink:href="#DejaVuSans-57" transform="translate(1206.203125 0)"/>
     <use xlink:href="#DejaVuSans-3" transform="translate(1245.40625 0)"/>
     <use xlink:href="#DejaVuSans-44" transform="translate(1277.1875 0)"/>
     <use xlink:href="#DejaVuSans-57" transform="translate(1338.46875 0)"/>
     <use xlink:href="#DejaVuSans-3" transform="translate(1377.671875 0)"/>
     <use xlink:href="#DejaVuSans-48" transform="translate(1409.453125 0)"/>
     <use xlink:href="#DejaVuSans-44" transform="translate(1470.984375 0)"/>
     <use xlink:href="#DejaVuSans-46" transform="translate(1532.265625 0)"/>
     <use xlink:href="#DejaVuSans-4b" transform="translate(1587.25 0)"/>
     <use xlink:href="#DejaVuSans-3" transform="translate(1650.625 0)"/>
     <use xlink:href="#DejaVuSans-59" transform="translate(1682.40625 0)"/>
     <use xlink:href="#DejaVuSans-44" transform="translate(1741.59375 0)"/>
     <use xlink:href="#DejaVuSans-4f" transform="translate(1802.875 0)"/>
     <use xlink:href="#DejaVuSans-58" transform="translate(1830.65625 0)"/>
     <use xlink:href="#DejaVuSans-48" transform="translate(1894.03125 0)"/>
    </g>
   </g>
   <g id="text_25">
    <!-- Discrete ECDF -->
    <g transform="translate(108.276719 51.184629) scale(0.09 -0.09)">
     <defs>
      <path id="DejaVuSans-27" d="M 1259 4147 
L 1259 519 
L 2022 519 
Q 2988 519 3436 956 
Q 3884 1394 3884 2338 
Q 3884 3275 3436 3711 
Q 2988 4147 2022 4147 
L 1259 4147 
z
M 628 4666 
L 1925 4666 
Q 3281 4666 3915 4102 
Q 4550 3538 4550 2338 
Q 4550 1131 3912 565 
Q 3275 0 1925 0 
L 628 0 
L 628 4666 
z
" transform="scale(0.015625)"/>
      <path id="DejaVuSans-56" d="M 2834 3397 
L 2834 2853 
Q 2591 2978 2328 3040 
Q 2066 3103 1784 3103 
Q 1356 3103 1142 2972 
Q 928 2841 928 2578 
Q 928 2378 1081 2264 
Q 1234 2150 1697 2047 
L 1894 2003 
Q 2506 1872 2764 1633 
Q 3022 1394 3022 966 
Q 3022 478 2636 193 
Q 2250 -91 1575 -91 
Q 1294 -91 989 -36 
Q 684 19 347 128 
L 347 722 
Q 666 556 975 473 
Q 1284 391 1588 391 
Q 1994 391 2212 530 
Q 2431 669 2431 922 
Q 2431 1156 2273 1281 
Q 2116 1406 1581 1522 
L 1381 1569 
Q 847 1681 609 1914 
Q 372 2147 372 2553 
Q 372 3047 722 3315 
Q 1072 3584 1716 3584 
Q 2034 3584 2315 3537 
Q 2597 3491 2834 3397 
z
" transform="scale(0.015625)"/>
      <path id="DejaVuSans-28" d="M 628 4666 
L 3578 4666 
L 3578 4134 
L 1259 4134 
L 1259 2753 
L 3481 2753 
L 3481 2222 
L 1259 2222 
L 1259 531 
L 3634 531 
L 3634 0 
L 628 0 
L 628 4666 
z
" transform="scale(0.015625)"/>
      <path id="DejaVuSans-26" d="M 4122 4306 
L 4122 3641 
Q 3803 3938 3442 4084 
Q 3081 4231 2675 4231 
Q 1875 4231 1450 3742 
Q 1025 3253 1025 2328 
Q 1025 1406 1450 917 
Q 1875 428 2675 428 
Q 3081 428 3442 575 
Q 3803 722 4122 1019 
L 4122 359 
Q 3791 134 3420 21 
Q 3050 -91 2638 -91 
Q 1578 -91 968 557 
Q 359 1206 359 2328 
Q 359 3453 968 4101 
Q 1578 4750 2638 4750 
Q 3056 4750 3426 4639 
Q 3797 4528 4122 4306 
z
" transform="scale(0.015625)"/>
     </defs>
     <use xlink:href="#DejaVuSans-27"/>
     <use xlink:href="#DejaVuSans-4c" transform="translate(77 0)"/>
     <use xlink:href="#DejaVuSans-56" transform="translate(104.78125 0)"/>
     <use xlink:href="#DejaVuSans-46" transform="translate(156.875 0)"/>
     <use xlink:href="#DejaVuSans-55" transform="translate(211.859375 0)"/>
     <use xlink:href="#DejaVuSans-48" transform="translate(250.765625 0)"/>
     <use xlink:href="#DejaVuSans-57" transform="translate(312.296875 0)"/>
     <use xlink:href="#DejaVuSans-48" transform="translate(351.5 0)"/>
     <use xlink:href="#DejaVuSans-3" transform="translate(413.03125 0)"/>
     <use xlink:href="#DejaVuSans-28" transform="translate(444.8125 0)"/>
     <use xlink:href="#DejaVuSans-26" transform="translate(508 0)"/>
     <use xlink:href="#DejaVuSans-27" transform="translate(577.828125 0)"/>
     <use xlink:href="#DejaVuSans-29" transform="translate(654.828125 0)"/>
    </g>
    <!-- Jump height = probability -->
    <g transform="translate(82.497344 61.98709) scale(0.09 -0.09)">
     <defs>
      <path id="DejaVuSans-2d" d="M 628 4666 
L 1259 4666 
L 1259 325 
Q 1259 -519 939 -900 
Q 619 -1281 -91 -1281 
L -331 -1281 
L -331 -750 
L -134 -750 
Q 284 -750 456 -515 
Q 628 -281 628 325 
L 628 4666 
z
" transform="scale(0.015625)"/>
      <path id="DejaVuSans-45" d="M 3116 1747 
Q 3116 2381 2855 2742 
Q 2594 3103 2138 3103 
Q 1681 3103 1420 2742 
Q 1159 2381 1159 1747 
Q 1159 1113 1420 752 
Q 1681 391 2138 391 
Q 2594 391 2855 752 
Q 3116 1113 3116 1747 
z
M 1159 2969 
Q 1341 3281 1617 3432 
Q 1894 3584 2278 3584 
Q 2916 3584 3314 3078 
Q 3713 2572 3713 1747 
Q 3713 922 3314 415 
Q 2916 -91 2278 -91 
Q 1894 -91 1617 61 
Q 1341 213 1159 525 
L 1159 0 
L 581 0 
L 581 4863 
L 1159 4863 
L 1159 2969 
z
" transform="scale(0.015625)"/>
      <path id="DejaVuSans-5c" d="M 2059 -325 
Q 1816 -950 1584 -1140 
Q 1353 -1331 966 -1331 
L 506 -1331 
L 506 -850 
L 844 -850 
Q 1081 -850 1212 -737 
Q 1344 -625 1503 -206 
L 1606 56 
L 191 3500 
L 800 3500 
L 1894 763 
L 2988 3500 
L 3597 3500 
L 2059 -325 
z
" transform="scale(0.015625)"/>
     </defs>
     <use xlink:href="#DejaVuSans-2d"/>
     <use xlink:href="#DejaVuSans-58" transform="translate(29.5 0)"/>
     <use xlink:href="#DejaVuSans-50" transform="translate(92.875 0)"/>
     <use xlink:href="#DejaVuSans-53" transform="translate(190.28125 0)"/>
     <use xlink:href="#DejaVuSans-3" transform="translate(253.765625 0)"/>
     <use xlink:href="#DejaVuSans-4b" transform="translate(285.546875 0)"/>
     <use xlink:href="#DejaVuSans-48" transform="translate(348.921875 0)"/>
     <use xlink:href="#DejaVuSans-4c" transform="translate(410.453125 0)"/>
     <use xlink:href="#DejaVuSans-4a" transform="translate(438.234375 0)"/>
     <use xlink:href="#DejaVuSans-4b" transform="translate(501.71875 0)"/>
     <use xlink:href="#DejaVuSans-57" transform="translate(565.09375 0)"/>
     <use xlink:href="#DejaVuSans-3" transform="translate(604.296875 0)"/>
     <use xlink:href="#DejaVuSans-20" transform="translate(636.078125 0)"/>
     <use xlink:href="#DejaVuSans-3" transform="translate(719.875 0)"/>
     <use xlink:href="#DejaVuSans-53" transform="translate(751.65625 0)"/>
     <use xlink:href="#DejaVuSans-55" transform="translate(815.140625 0)"/>
     <use xlink:href="#DejaVuSans-52" transform="translate(854.046875 0)"/>
     <use xlink:href="#DejaVuSans-45" transform="translate(915.234375 0)"/>
     <use xlink:href="#DejaVuSans-44" transform="translate(978.71875 0)"/>
     <use xlink:href="#DejaVuSans-45" transform="translate(1040 0)"/>
     <use xlink:href="#DejaVuSans-4c" transform="translate(1103.484375 0)"/>
     <use xlink:href="#DejaVuSans-4f" transform="translate(1131.265625 0)"/>
     <use xlink:href="#DejaVuSans-4c" transform="translate(1159.046875 0)"/>
     <use xlink:href="#DejaVuSans-57" transform="translate(1186.828125 0)"/>
     <use xlink:href="#DejaVuSans-5c" transform="translate(1226.03125 0)"/>
    </g>
   </g>
  </g>
  <g id="axes_2">
   <g id="patch_5">
    <path d="M 283.932187 190.72 
L 489.932187 190.72 
L 489.932187 67.98709 
L 283.932187 67.98709 
z
" style="fill: #ffffff"/>
   </g>
   <g id="matplotlib.axis_3">
    <g id="xtick_10">
     <g id="line2d_16">
      <g>
       <use xlink:href="#mf4d91ace84" x="303.115257" y="190.72" style="stroke: #000000; stroke-width: 0.8"/>
      </g>
     </g>
     <g id="text_26">
      <!-- 2 -->
      <g transform="translate(300.888382 203.038359) scale(0.07 -0.07)">
       <use xlink:href="#DejaVuSans-15"/>
      </g>
     </g>
    </g>
    <g id="xtick_11">
     <g id="line2d_17">
      <g>
       <use xlink:href="#mf4d91ace84" x="335.354578" y="190.72" style="stroke: #000000; stroke-width: 0.8"/>
      </g>
     </g>
     <g id="text_27">
      <!-- 4 -->
      <g transform="translate(333.127703 203.038359) scale(0.07 -0.07)">
       <use xlink:href="#DejaVuSans-17"/>
      </g>
     </g>
    </g>
    <g id="xtick_12">
     <g id="line2d_18">
      <g>
       <use xlink:href="#mf4d91ace84" x="367.593898" y="190.72" style="stroke: #000000; stroke-width: 0.8"/>
      </g>
     </g>
     <g id="text_28">
      <!-- 6 -->
      <g transform="translate(365.367023 203.038359) scale(0.07 -0.07)">
       <use xlink:href="#DejaVuSans-19"/>
      </g>
     </g>
    </g>
    <g id="xtick_13">
     <g id="line2d_19">
      <g>
       <use xlink:href="#mf4d91ace84" x="399.833219" y="190.72" style="stroke: #000000; stroke-width: 0.8"/>
      </g>
     </g>
     <g id="text_29">
      <!-- 8 -->
      <g transform="translate(397.606344 203.038359) scale(0.07 -0.07)">
       <use xlink:href="#DejaVuSans-1b"/>
      </g>
     </g>
    </g>
    <g id="xtick_14">
     <g id="line2d_20">
      <g>
       <use xlink:href="#mf4d91ace84" x="432.072539" y="190.72" style="stroke: #000000; stroke-width: 0.8"/>
      </g>
     </g>
     <g id="text_30">
      <!-- 10 -->
      <g transform="translate(427.618789 203.038359) scale(0.07 -0.07)">
       <use xlink:href="#DejaVuSans-14"/>
       <use xlink:href="#DejaVuSans-13" transform="translate(63.625 0)"/>
      </g>
     </g>
    </g>
    <g id="xtick_15">
     <g id="line2d_21">
      <g>
       <use xlink:href="#mf4d91ace84" x="464.31186" y="190.72" style="stroke: #000000; stroke-width: 0.8"/>
      </g>
     </g>
     <g id="text_31">
      <!-- 12 -->
      <g transform="translate(459.85811 203.038359) scale(0.07 -0.07)">
       <use xlink:href="#DejaVuSans-14"/>
       <use xlink:href="#DejaVuSans-15" transform="translate(63.625 0)"/>
      </g>
     </g>
    </g>
    <g id="text_32">
     <!-- x -->
     <g transform="translate(384.564687 214.798125) scale(0.08 -0.08)">
      <use xlink:href="#DejaVuSans-5b"/>
     </g>
    </g>
   </g>
   <g id="matplotlib.axis_4">
    <g id="ytick_7">
     <g id="line2d_22">
      <g>
       <use xlink:href="#m163f299e00" x="283.932187" y="185.420869" style="stroke: #000000; stroke-width: 0.8"/>
      </g>
     </g>
     <g id="text_33">
      <!-- 0.0 -->
      <g transform="translate(265.8 188.080049) scale(0.07 -0.07)">
       <use xlink:href="#DejaVuSans-13"/>
       <use xlink:href="#DejaVuSans-11" transform="translate(63.625 0)"/>
       <use xlink:href="#DejaVuSans-13" transform="translate(95.40625 0)"/>
      </g>
     </g>
    </g>
    <g id="ytick_8">
     <g id="line2d_23">
      <g>
       <use xlink:href="#m163f299e00" x="283.932187" y="163.049867" style="stroke: #000000; stroke-width: 0.8"/>
      </g>
     </g>
     <g id="text_34">
      <!-- 0.2 -->
      <g transform="translate(265.8 165.709046) scale(0.07 -0.07)">
       <use xlink:href="#DejaVuSans-13"/>
       <use xlink:href="#DejaVuSans-11" transform="translate(63.625 0)"/>
       <use xlink:href="#DejaVuSans-15" transform="translate(95.40625 0)"/>
      </g>
     </g>
    </g>
    <g id="ytick_9">
     <g id="line2d_24">
      <g>
       <use xlink:href="#m163f299e00" x="283.932187" y="140.678865" style="stroke: #000000; stroke-width: 0.8"/>
      </g>
     </g>
     <g id="text_35">
      <!-- 0.4 -->
      <g transform="translate(265.8 143.338044) scale(0.07 -0.07)">
       <use xlink:href="#DejaVuSans-13"/>
       <use xlink:href="#DejaVuSans-11" transform="translate(63.625 0)"/>
       <use xlink:href="#DejaVuSans-17" transform="translate(95.40625 0)"/>
      </g>
     </g>
    </g>
    <g id="ytick_10">
     <g id="line2d_25">
      <g>
       <use xlink:href="#m163f299e00" x="283.932187" y="118.307863" style="stroke: #000000; stroke-width: 0.8"/>
      </g>
     </g>
     <g id="text_36">
      <!-- 0.6 -->
      <g transform="translate(265.8 120.967042) scale(0.07 -0.07)">
       <use xlink:href="#DejaVuSans-13"/>
       <use xlink:href="#DejaVuSans-11" transform="translate(63.625 0)"/>
       <use xlink:href="#DejaVuSans-19" transform="translate(95.40625 0)"/>
      </g>
     </g>
    </g>
    <g id="ytick_11">
     <g id="line2d_26">
      <g>
       <use xlink:href="#m163f299e00" x="283.932187" y="95.936861" style="stroke: #000000; stroke-width: 0.8"/>
      </g>
     </g>
     <g id="text_37">
      <!-- 0.8 -->
      <g transform="translate(265.8 98.59604) scale(0.07 -0.07)">
       <use xlink:href="#DejaVuSans-13"/>
       <use xlink:href="#DejaVuSans-11" transform="translate(63.625 0)"/>
       <use xlink:href="#DejaVuSans-1b" transform="translate(95.40625 0)"/>
      </g>
     </g>
    </g>
    <g id="ytick_12">
     <g id="line2d_27">
      <g>
       <use xlink:href="#m163f299e00" x="283.932187" y="73.565858" style="stroke: #000000; stroke-width: 0.8"/>
      </g>
     </g>
     <g id="text_38">
      <!-- 1.0 -->
      <g transform="translate(265.8 76.225038) scale(0.07 -0.07)">
       <use xlink:href="#DejaVuSans-14"/>
       <use xlink:href="#DejaVuSans-11" transform="translate(63.625 0)"/>
       <use xlink:href="#DejaVuSans-13" transform="translate(95.40625 0)"/>
      </g>
     </g>
    </g>
    <g id="text_39">
     <!-- F(x) -->
     <g transform="translate(259.878125 137.14292) rotate(-90) scale(0.08 -0.08)">
      <use xlink:href="#DejaVuSans-29"/>
      <use xlink:href="#DejaVuSans-b" transform="translate(57.515625 0)"/>
      <use xlink:href="#DejaVuSans-5b" transform="translate(96.53125 0)"/>
      <use xlink:href="#DejaVuSans-c" transform="translate(155.71875 0)"/>
     </g>
    </g>
   </g>
   <g id="line2d_28">
    <path d="M 293.295824 185.141231 
L 296.255503 184.861594 
L 296.556258 184.581956 
L 299.161589 184.302319 
L 300.586466 184.022681 
L 304.539099 183.743044 
L 305.205212 183.463406 
L 305.302439 182.904131 
L 308.993236 182.624494 
L 311.198969 182.344856 
L 311.281893 182.065219 
L 311.528113 181.785581 
L 312.365389 181.505944 
L 313.261208 180.667031 
L 314.496242 180.387393 
L 314.566622 180.107756 
L 314.914652 179.828118 
L 314.921632 179.548481 
L 315.507985 179.268843 
L 315.952443 178.429931 
L 316.581051 178.150293 
L 320.217183 177.591018 
L 320.300736 177.311381 
L 321.087747 177.031743 
L 321.239539 176.472468 
L 321.624788 176.192831 
L 321.731824 175.633555 
L 322.228981 174.794643 
L 322.454558 174.515005 
L 322.477884 174.235368 
L 323.935101 173.95573 
L 324.079319 173.676093 
L 324.097886 173.396455 
L 324.261382 173.116818 
L 324.285599 172.83718 
L 324.907692 172.557543 
L 325.194536 171.998268 
L 325.693535 171.71863 
L 326.733189 171.438993 
L 328.47021 171.159355 
L 328.659251 170.879718 
L 328.661002 170.60008 
L 329.692309 170.040805 
L 329.785356 169.48153 
L 330.152381 169.201892 
L 330.588259 167.803705 
L 331.17013 167.524067 
L 331.749667 166.685155 
L 332.291262 166.405517 
L 333.24178 164.448054 
L 334.301586 164.168417 
L 334.43729 163.888779 
L 334.77117 163.609142 
L 335.336231 162.210954 
L 335.817905 161.931317 
L 336.000515 161.651679 
L 336.363867 161.372042 
L 336.529983 160.253492 
L 337.026058 159.973854 
L 337.197562 159.694216 
L 337.321852 158.855304 
L 337.623385 158.575666 
L 337.968548 157.736754 
L 338.346843 157.177479 
L 339.23206 156.618204 
L 339.35905 156.058929 
L 339.647851 155.779291 
L 339.720175 154.940379 
L 339.898305 154.660741 
L 340.063601 153.821828 
L 340.271897 152.982916 
L 340.716903 152.703278 
L 341.066461 152.144003 
L 341.343393 151.864366 
L 342.173185 149.627266 
L 342.358304 148.788353 
L 342.848084 148.229078 
L 343.415208 147.669803 
L 343.500408 147.110528 
L 343.791054 146.83089 
L 343.964222 145.991978 
L 343.981266 145.71234 
L 344.714826 144.873428 
L 344.967306 143.754878 
L 345.245056 143.47524 
L 345.318381 142.915965 
L 345.721916 142.35669 
L 346.058162 141.23814 
L 346.393459 140.678865 
L 346.515688 140.11959 
L 346.772561 139.560315 
L 346.889575 138.721402 
L 347.135103 138.441765 
L 347.274143 137.882489 
L 348.338178 137.043577 
L 348.367055 136.763939 
L 348.81815 136.204664 
L 348.918242 135.645389 
L 348.958405 135.365752 
L 349.279114 135.086114 
L 349.515105 134.247202 
L 349.676363 133.687927 
L 349.782924 132.569376 
L 349.944791 132.289739 
L 349.960976 132.010101 
L 350.234744 131.450826 
L 350.392535 129.493364 
L 350.87065 129.213726 
L 351.518495 128.095176 
L 351.72239 127.256263 
L 352.02471 126.137713 
L 352.354206 125.858076 
L 352.428038 125.578438 
L 353.017885 124.739526 
L 353.139931 124.180251 
L 353.151283 123.900613 
L 353.612388 123.620976 
L 353.662781 123.341338 
L 354.652289 122.782063 
L 355.080196 121.94315 
L 355.811743 118.5875 
L 356.172449 117.748588 
L 356.187444 116.909675 
L 356.824318 116.3504 
L 356.876281 115.791125 
L 357.22401 115.23185 
L 357.502724 113.833662 
L 358.011551 112.99475 
L 358.354153 112.435475 
L 358.498199 111.596562 
L 358.514737 111.316924 
L 358.808421 111.037287 
L 358.850136 110.478012 
L 358.985587 110.198374 
L 359.082209 109.639099 
L 359.130409 109.359462 
L 359.592852 109.079824 
L 359.756898 108.800187 
L 359.779232 108.520549 
L 360.377545 107.961274 
L 360.420333 107.681637 
L 360.981723 106.842724 
L 361.031209 106.003812 
L 361.232756 105.724174 
L 361.266757 105.444536 
L 361.441881 105.164899 
L 361.531013 104.605624 
L 362.509897 102.368524 
L 362.538894 101.809249 
L 362.74326 101.529611 
L 362.993171 100.690699 
L 363.725054 100.131423 
L 363.731518 99.851786 
L 364.464063 99.572148 
L 364.876593 99.292511 
L 365.21881 98.173961 
L 365.980002 97.894323 
L 366.0032 97.614686 
L 366.165984 97.335048 
L 366.346359 96.496136 
L 366.829539 95.936861 
L 366.990284 95.377586 
L 367.815209 95.097948 
L 368.152738 94.259035 
L 368.616359 93.979398 
L 368.73003 93.140485 
L 369.452366 92.58121 
L 369.510878 92.301573 
L 369.842808 92.021935 
L 370.001368 91.46266 
L 370.082526 90.903385 
L 370.62761 90.064473 
L 371.001049 89.22556 
L 371.862109 88.666285 
L 372.178945 88.386647 
L 372.275242 88.10701 
L 373.077815 87.547735 
L 374.270907 86.149547 
L 375.271154 85.86991 
L 375.358776 85.590272 
L 377.112856 83.912447 
L 377.608841 83.632809 
L 377.831098 82.793897 
L 378.951894 82.234622 
L 379.029104 81.954984 
L 379.75836 80.836434 
L 381.031854 80.556797 
L 382.709861 79.717884 
L 383.166001 79.158609 
L 383.263075 78.599334 
L 383.945836 77.760421 
L 386.268041 77.480784 
L 386.552057 77.201146 
L 387.366338 76.921509 
L 387.388469 76.641871 
L 387.623888 76.362234 
L 388.042152 76.082596 
L 388.680589 75.802959 
L 393.448607 74.964046 
L 393.957083 74.404771 
L 396.913802 74.125134 
L 412.446338 73.565858 
L 412.446338 73.565858 
" clip-path="url(#pd1b8a85d66)" style="fill: none; stroke: #2166ac; stroke-width: 2; stroke-linecap: square"/>
   </g>
   <g id="line2d_29">
    <path d="M 303.354057 185.141231 
L 303.527697 184.861594 
L 303.5421 184.581956 
L 303.767348 184.022681 
L 303.961095 182.904131 
L 304.097203 182.344856 
L 304.101002 182.065219 
L 304.324123 181.785581 
L 304.385185 180.946668 
L 304.514179 180.387393 
L 304.634677 179.548481 
L 304.767636 178.709568 
L 305.051857 176.752106 
L 305.431625 175.633555 
L 306.216595 171.159355 
L 306.350921 170.879718 
L 306.49145 169.48153 
L 306.577678 168.922255 
L 306.642764 168.083342 
L 306.871073 167.524067 
L 306.948769 166.405517 
L 307.226543 166.12588 
L 307.237961 165.846242 
L 307.427784 165.566605 
L 307.584207 163.888779 
L 307.736358 163.609142 
L 307.792818 163.049867 
L 308.034939 162.490592 
L 308.159765 161.372042 
L 308.858749 159.694216 
L 308.923583 159.134941 
L 309.593435 157.457116 
L 309.71132 156.897841 
L 309.852384 156.338566 
L 309.899557 155.779291 
L 310.146263 155.499654 
L 310.162912 155.220016 
L 310.302956 154.940379 
L 310.397394 154.101466 
L 310.565372 153.542191 
L 310.781761 151.584728 
L 310.879844 151.025453 
L 310.894283 150.745816 
L 311.473209 149.347628 
L 311.561111 148.508715 
L 311.794351 147.94944 
L 312.14538 146.271615 
L 312.330546 145.153065 
L 312.681196 144.59379 
L 312.935279 144.034515 
L 313.197477 143.754878 
L 313.250115 143.195602 
L 313.517029 142.636327 
L 313.683042 142.077052 
L 313.728731 141.517777 
L 313.893997 141.23814 
L 313.993056 140.11959 
L 314.159909 139.839952 
L 314.49214 139.560315 
L 314.871988 138.721402 
L 315.103483 138.441765 
L 315.677113 138.162127 
L 315.688276 137.882489 
L 317.038665 135.365752 
L 317.097466 134.806477 
L 317.390489 134.526839 
L 317.528385 133.687927 
L 317.941156 132.849014 
L 318.19344 131.730464 
L 318.827903 130.611914 
L 319.491475 130.332276 
L 320.16348 128.654451 
L 320.799264 128.374814 
L 321.131655 128.095176 
L 321.748548 126.976626 
L 322.145018 126.696988 
L 322.234171 126.137713 
L 322.453447 125.858076 
L 323.219936 125.578438 
L 323.424861 125.298801 
L 323.678304 124.459888 
L 323.939091 124.180251 
L 324.079056 123.341338 
L 324.231574 122.502426 
L 325.032715 121.663513 
L 325.131004 120.8246 
L 325.717555 120.544963 
L 325.906198 119.985688 
L 326.402067 119.70605 
L 326.525894 119.426413 
L 326.87315 119.146775 
L 327.073179 118.028225 
L 327.364394 116.909675 
L 327.637738 116.630037 
L 327.758416 116.070762 
L 328.24583 114.392937 
L 328.316498 113.833662 
L 328.883101 112.715112 
L 328.957105 112.155837 
L 329.359591 111.8762 
L 329.404562 111.316924 
L 329.978274 111.037287 
L 330.238814 110.757649 
L 330.431011 109.639099 
L 330.449875 109.359462 
L 330.856735 109.079824 
L 330.926726 108.520549 
L 331.17618 108.240912 
L 331.219105 107.961274 
L 331.562388 107.681637 
L 331.698753 106.842724 
L 332.353194 106.003812 
L 333.232256 104.325986 
L 334.942564 102.648161 
L 335.247095 102.368524 
L 335.449113 101.809249 
L 335.843941 101.249974 
L 336.809691 100.690699 
L 337.286689 100.131423 
L 337.62572 99.572148 
L 337.837716 99.292511 
L 338.259753 99.012873 
L 338.417406 98.733236 
L 339.27717 98.453598 
L 339.887324 97.614686 
L 341.434952 97.335048 
L 341.501906 96.775773 
L 342.047285 96.216498 
L 343.012327 95.936861 
L 343.478838 95.657223 
L 343.636457 95.377586 
L 344.510559 94.81831 
L 344.692527 93.979398 
L 344.985085 92.860848 
L 346.302768 92.021935 
L 346.583356 91.742298 
L 346.678259 91.183023 
L 346.884969 90.903385 
L 347.478818 90.34411 
L 347.996315 89.505197 
L 348.009327 89.22556 
L 348.172617 88.945922 
L 350.366939 88.386647 
L 350.414288 88.10701 
L 352.02309 87.827372 
L 352.077523 87.547735 
L 352.390259 87.268097 
L 353.345557 86.98846 
L 353.808787 86.708822 
L 353.810183 86.429185 
L 356.267352 86.149547 
L 356.669652 85.86991 
L 356.701066 85.590272 
L 357.799451 85.310635 
L 360.541549 85.030997 
L 361.221416 84.75136 
L 361.831737 83.632809 
L 361.938821 83.353172 
L 362.673311 83.073534 
L 362.952986 82.234622 
L 365.341028 81.954984 
L 366.648413 81.675347 
L 366.920938 81.395709 
L 366.991398 81.116072 
L 367.648143 80.836434 
L 371.446594 80.277159 
L 373.562428 79.717884 
L 377.205196 79.438247 
L 377.919488 79.158609 
L 379.749662 78.878971 
L 382.656977 78.599334 
L 384.486695 78.040059 
L 386.589856 77.760421 
L 390.066002 77.480784 
L 392.899769 76.921509 
L 394.791707 76.362234 
L 399.439047 75.802959 
L 400.910645 75.523321 
L 405.650273 74.964046 
L 406.63749 74.684409 
L 408.817336 74.404771 
L 418.751875 74.125134 
L 480.568551 73.565858 
L 480.568551 73.565858 
" clip-path="url(#pd1b8a85d66)" style="fill: none; stroke-dasharray: 7.4,3.2; stroke-dashoffset: 0; stroke: #d6604d; stroke-width: 2"/>
   </g>
   <g id="patch_6">
    <path d="M 283.932187 190.72 
L 283.932187 67.98709 
" style="fill: none; stroke: #000000; stroke-width: 0.8; stroke-linejoin: miter; stroke-linecap: square"/>
   </g>
   <g id="patch_7">
    <path d="M 283.932187 190.72 
L 489.932187 190.72 
" style="fill: none; stroke: #000000; stroke-width: 0.8; stroke-linejoin: miter; stroke-linecap: square"/>
   </g>
   <g id="text_40">
    <!-- S-shape → normal -->
    <g style="fill: #333333" transform="translate(292.172188 114.214849) scale(0.075 -0.075)">
     <defs>
      <path id="DejaVuSans-36" d="M 3425 4513 
L 3425 3897 
Q 3066 4069 2747 4153 
Q 2428 4238 2131 4238 
Q 1616 4238 1336 4038 
Q 1056 3838 1056 3469 
Q 1056 3159 1242 3001 
Q 1428 2844 1947 2747 
L 2328 2669 
Q 3034 2534 3370 2195 
Q 3706 1856 3706 1288 
Q 3706 609 3251 259 
Q 2797 -91 1919 -91 
Q 1588 -91 1214 -16 
Q 841 59 441 206 
L 441 856 
Q 825 641 1194 531 
Q 1563 422 1919 422 
Q 2459 422 2753 634 
Q 3047 847 3047 1241 
Q 3047 1584 2836 1778 
Q 2625 1972 2144 2069 
L 1759 2144 
Q 1053 2284 737 2584 
Q 422 2884 422 3419 
Q 422 4038 858 4394 
Q 1294 4750 2059 4750 
Q 2388 4750 2728 4690 
Q 3069 4631 3425 4513 
z
" transform="scale(0.015625)"/>
      <path id="DejaVuSans-10" d="M 313 2009 
L 1997 2009 
L 1997 1497 
L 313 1497 
L 313 2009 
z
" transform="scale(0.015625)"/>
      <path id="DejaVuSans-c1c" d="M 5050 2147 
L 5050 1866 
L 3822 638 
L 3447 1013 
L 4175 1741 
L 366 1741 
L 366 2272 
L 4175 2272 
L 3447 3000 
L 3822 3375 
L 5050 2147 
z
" transform="scale(0.015625)"/>
      <path id="DejaVuSans-51" d="M 3513 2113 
L 3513 0 
L 2938 0 
L 2938 2094 
Q 2938 2591 2744 2837 
Q 2550 3084 2163 3084 
Q 1697 3084 1428 2787 
Q 1159 2491 1159 1978 
L 1159 0 
L 581 0 
L 581 3500 
L 1159 3500 
L 1159 2956 
Q 1366 3272 1645 3428 
Q 1925 3584 2291 3584 
Q 2894 3584 3203 3211 
Q 3513 2838 3513 2113 
z
" transform="scale(0.015625)"/>
     </defs>
     <use xlink:href="#DejaVuSans-36"/>
     <use xlink:href="#DejaVuSans-10" transform="translate(63.484375 0)"/>
     <use xlink:href="#DejaVuSans-56" transform="translate(99.5625 0)"/>
     <use xlink:href="#DejaVuSans-4b" transform="translate(151.65625 0)"/>
     <use xlink:href="#DejaVuSans-44" transform="translate(215.03125 0)"/>
     <use xlink:href="#DejaVuSans-53" transform="translate(276.3125 0)"/>
     <use xlink:href="#DejaVuSans-48" transform="translate(339.796875 0)"/>
     <use xlink:href="#DejaVuSans-3" transform="translate(401.328125 0)"/>
     <use xlink:href="#DejaVuSans-c1c" transform="translate(433.109375 0)"/>
     <use xlink:href="#DejaVuSans-3" transform="translate(516.90625 0)"/>
     <use xlink:href="#DejaVuSans-51" transform="translate(548.6875 0)"/>
     <use xlink:href="#DejaVuSans-52" transform="translate(612.0625 0)"/>
     <use xlink:href="#DejaVuSans-55" transform="translate(673.25 0)"/>
     <use xlink:href="#DejaVuSans-50" transform="translate(712.609375 0)"/>
     <use xlink:href="#DejaVuSans-44" transform="translate(810.015625 0)"/>
     <use xlink:href="#DejaVuSans-4f" transform="translate(871.296875 0)"/>
    </g>
    <!-- concave → exponential -->
    <g style="fill: #333333" transform="translate(292.172188 123.216899) scale(0.075 -0.075)">
     <use xlink:href="#DejaVuSans-46"/>
     <use xlink:href="#DejaVuSans-52" transform="translate(54.984375 0)"/>
     <use xlink:href="#DejaVuSans-51" transform="translate(116.171875 0)"/>
     <use xlink:href="#DejaVuSans-46" transform="translate(179.546875 0)"/>
     <use xlink:href="#DejaVuSans-44" transform="translate(234.53125 0)"/>
     <use xlink:href="#DejaVuSans-59" transform="translate(295.8125 0)"/>
     <use xlink:href="#DejaVuSans-48" transform="translate(355 0)"/>
     <use xlink:href="#DejaVuSans-3" transform="translate(416.53125 0)"/>
     <use xlink:href="#DejaVuSans-c1c" transform="translate(448.3125 0)"/>
     <use xlink:href="#DejaVuSans-3" transform="translate(532.109375 0)"/>
     <use xlink:href="#DejaVuSans-48" transform="translate(563.890625 0)"/>
     <use xlink:href="#DejaVuSans-5b" transform="translate(623.671875 0)"/>
     <use xlink:href="#DejaVuSans-53" transform="translate(682.859375 0)"/>
     <use xlink:href="#DejaVuSans-52" transform="translate(746.34375 0)"/>
     <use xlink:href="#DejaVuSans-51" transform="translate(807.53125 0)"/>
     <use xlink:href="#DejaVuSans-48" transform="translate(870.90625 0)"/>
     <use xlink:href="#DejaVuSans-51" transform="translate(932.4375 0)"/>
     <use xlink:href="#DejaVuSans-57" transform="translate(995.8125 0)"/>
     <use xlink:href="#DejaVuSans-4c" transform="translate(1035.015625 0)"/>
     <use xlink:href="#DejaVuSans-44" transform="translate(1062.796875 0)"/>
     <use xlink:href="#DejaVuSans-4f" transform="translate(1124.078125 0)"/>
    </g>
   </g>
   <g id="text_41">
    <!-- Continuous ECDF -->
    <g transform="translate(348.047969 51.184629) scale(0.09 -0.09)">
     <use xlink:href="#DejaVuSans-26"/>
     <use xlink:href="#DejaVuSans-52" transform="translate(69.828125 0)"/>
     <use xlink:href="#DejaVuSans-51" transform="translate(131.015625 0)"/>
     <use xlink:href="#DejaVuSans-57" transform="translate(194.390625 0)"/>
     <use xlink:href="#DejaVuSans-4c" transform="translate(233.59375 0)"/>
     <use xlink:href="#DejaVuSans-51" transform="translate(261.375 0)"/>
     <use xlink:href="#DejaVuSans-58" transform="translate(324.75 0)"/>
     <use xlink:href="#DejaVuSans-52" transform="translate(388.125 0)"/>
     <use xlink:href="#DejaVuSans-58" transform="translate(449.3125 0)"/>
     <use xlink:href="#DejaVuSans-56" transform="translate(512.6875 0)"/>
     <use xlink:href="#DejaVuSans-3" transform="translate(564.78125 0)"/>
     <use xlink:href="#DejaVuSans-28" transform="translate(596.5625 0)"/>
     <use xlink:href="#DejaVuSans-26" transform="translate(659.75 0)"/>
     <use xlink:href="#DejaVuSans-27" transform="translate(729.578125 0)"/>
     <use xlink:href="#DejaVuSans-29" transform="translate(806.578125 0)"/>
    </g>
    <!-- Shape reveals distribution -->
    <g transform="translate(328.032109 61.98709) scale(0.09 -0.09)">
     <use xlink:href="#DejaVuSans-36"/>
     <use xlink:href="#DejaVuSans-4b" transform="translate(63.484375 0)"/>
     <use xlink:href="#DejaVuSans-44" transform="translate(126.859375 0)"/>
     <use xlink:href="#DejaVuSans-53" transform="translate(188.140625 0)"/>
     <use xlink:href="#DejaVuSans-48" transform="translate(251.625 0)"/>
     <use xlink:href="#DejaVuSans-3" transform="translate(313.15625 0)"/>
     <use xlink:href="#DejaVuSans-55" transform="translate(344.9375 0)"/>
     <use xlink:href="#DejaVuSans-48" transform="translate(383.84375 0)"/>
     <use xlink:href="#DejaVuSans-59" transform="translate(445.375 0)"/>
     <use xlink:href="#DejaVuSans-48" transform="translate(504.5625 0)"/>
     <use xlink:href="#DejaVuSans-44" transform="translate(566.09375 0)"/>
     <use xlink:href="#DejaVuSans-4f" transform="translate(627.375 0)"/>
     <use xlink:href="#DejaVuSans-56" transform="translate(655.15625 0)"/>
     <use xlink:href="#DejaVuSans-3" transform="translate(707.25 0)"/>
     <use xlink:href="#DejaVuSans-47" transform="translate(739.03125 0)"/>
     <use xlink:href="#DejaVuSans-4c" transform="translate(802.515625 0)"/>
     <use xlink:href="#DejaVuSans-56" transform="translate(830.296875 0)"/>
     <use xlink:href="#DejaVuSans-57" transform="translate(882.390625 0)"/>
     <use xlink:href="#DejaVuSans-55" transform="translate(921.59375 0)"/>
     <use xlink:href="#DejaVuSans-4c" transform="translate(962.703125 0)"/>
     <use xlink:href="#DejaVuSans-45" transform="translate(990.484375 0)"/>
     <use xlink:href="#DejaVuSans-58" transform="translate(1053.96875 0)"/>
     <use xlink:href="#DejaVuSans-57" transform="translate(1117.34375 0)"/>
     <use xlink:href="#DejaVuSans-4c" transform="translate(1156.546875 0)"/>
     <use xlink:href="#DejaVuSans-52" transform="translate(1184.328125 0)"/>
     <use xlink:href="#DejaVuSans-51" transform="translate(1245.515625 0)"/>
    </g>
   </g>
   <g id="legend_1">
    <g id="line2d_30">
     <path d="M 385.791875 169.787812 
L 392.791875 169.787812 
L 399.791875 169.787812 
" style="fill: none; stroke: #2166ac; stroke-width: 2; stroke-linecap: square"/>
    </g>
    <g id="text_42">
     <!-- Normal (S-curve) -->
     <g transform="translate(405.391875 172.237812) scale(0.07 -0.07)">
      <defs>
       <path id="DejaVuSans-31" d="M 628 4666 
L 1478 4666 
L 3547 763 
L 3547 4666 
L 4159 4666 
L 4159 0 
L 3309 0 
L 1241 3903 
L 1241 0 
L 628 0 
L 628 4666 
z
" transform="scale(0.015625)"/>
      </defs>
      <use xlink:href="#DejaVuSans-31"/>
      <use xlink:href="#DejaVuSans-52" transform="translate(74.8125 0)"/>
      <use xlink:href="#DejaVuSans-55" transform="translate(136 0)"/>
      <use xlink:href="#DejaVuSans-50" transform="translate(175.359375 0)"/>
      <use xlink:href="#DejaVuSans-44" transform="translate(272.765625 0)"/>
      <use xlink:href="#DejaVuSans-4f" transform="translate(334.046875 0)"/>
      <use xlink:href="#DejaVuSans-3" transform="translate(361.828125 0)"/>
      <use xlink:href="#DejaVuSans-b" transform="translate(393.609375 0)"/>
      <use xlink:href="#DejaVuSans-36" transform="translate(432.625 0)"/>
      <use xlink:href="#DejaVuSans-10" transform="translate(496.109375 0)"/>
      <use xlink:href="#DejaVuSans-46" transform="translate(532.1875 0)"/>
      <use xlink:href="#DejaVuSans-58" transform="translate(587.171875 0)"/>
      <use xlink:href="#DejaVuSans-55" transform="translate(650.546875 0)"/>
      <use xlink:href="#DejaVuSans-59" transform="translate(691.65625 0)"/>
      <use xlink:href="#DejaVuSans-48" transform="translate(750.84375 0)"/>
      <use xlink:href="#DejaVuSans-c" transform="translate(812.375 0)"/>
     </g>
    </g>
    <g id="line2d_31">
     <path d="M 385.791875 180.288359 
L 392.791875 180.288359 
L 399.791875 180.288359 
" style="fill: none; stroke-dasharray: 7.4,3.2; stroke-dashoffset: 0; stroke: #d6604d; stroke-width: 2"/>
    </g>
    <g id="text_43">
     <!-- Exponential (concave) -->
     <g transform="translate(405.391875 182.738359) scale(0.07 -0.07)">
      <use xlink:href="#DejaVuSans-28"/>
      <use xlink:href="#DejaVuSans-5b" transform="translate(63.1875 0)"/>
      <use xlink:href="#DejaVuSans-53" transform="translate(122.375 0)"/>
      <use xlink:href="#DejaVuSans-52" transform="translate(185.859375 0)"/>
      <use xlink:href="#DejaVuSans-51" transform="translate(247.046875 0)"/>
      <use xlink:href="#DejaVuSans-48" transform="translate(310.421875 0)"/>
      <use xlink:href="#DejaVuSans-51" transform="translate(371.953125 0)"/>
      <use xlink:href="#DejaVuSans-57" transform="translate(435.328125 0)"/>
      <use xlink:href="#DejaVuSans-4c" transform="translate(474.53125 0)"/>
      <use xlink:href="#DejaVuSans-44" transform="translate(502.3125 0)"/>
      <use xlink:href="#DejaVuSans-4f" transform="translate(563.59375 0)"/>
      <use xlink:href="#DejaVuSans-3" transform="translate(591.375 0)"/>
      <use xlink:href="#DejaVuSans-b" transform="translate(623.15625 0)"/>
      <use xlink:href="#DejaVuSans-46" transform="translate(662.171875 0)"/>
      <use xlink:href="#DejaVuSans-52" transform="translate(717.15625 0)"/>
      <use xlink:href="#DejaVuSans-51" transform="translate(778.34375 0)"/>
      <use xlink:href="#DejaVuSans-46" transform="translate(841.71875 0)"/>
      <use xlink:href="#DejaVuSans-44" transform="translate(896.703125 0)"/>
      <use xlink:href="#DejaVuSans-59" transform="translate(957.984375 0)"/>
      <use xlink:href="#DejaVuSans-48" transform="translate(1017.171875 0)"/>
      <use xlink:href="#DejaVuSans-c" transform="translate(1078.703125 0)"/>
     </g>
    </g>
   </g>
  </g>
  <g id="text_44">
   <!-- ECDF — how to read jump heights -->
   <g transform="translate(153.156406 14.798437) scale(0.1 -0.1)">
    <defs>
     <path id="DejaVuSans-Bold-28" d="M 588 4666 
L 3834 4666 
L 3834 3756 
L 1791 3756 
L 1791 2888 
L 3713 2888 
L 3713 1978 
L 1791 1978 
L 1791 909 
L 3903 909 
L 3903 0 
L 588 0 
L 588 4666 
z
" transform="scale(0.015625)"/>
     <path id="DejaVuSans-Bold-26" d="M 4288 256 
Q 3956 84 3597 -3 
Q 3238 -91 2847 -91 
Q 1681 -91 1000 561 
Q 319 1213 319 2328 
Q 319 3447 1000 4098 
Q 1681 4750 2847 4750 
Q 3238 4750 3597 4662 
Q 3956 4575 4288 4403 
L 4288 3438 
Q 3953 3666 3628 3772 
Q 3303 3878 2944 3878 
Q 2300 3878 1931 3465 
Q 1563 3053 1563 2328 
Q 1563 1606 1931 1193 
Q 2300 781 2944 781 
Q 3303 781 3628 887 
Q 3953 994 4288 1222 
L 4288 256 
z
" transform="scale(0.015625)"/>
     <path id="DejaVuSans-Bold-27" d="M 1791 3756 
L 1791 909 
L 2222 909 
Q 2959 909 3348 1275 
Q 3738 1641 3738 2338 
Q 3738 3031 3350 3393 
Q 2963 3756 2222 3756 
L 1791 3756 
z
M 588 4666 
L 1856 4666 
Q 2919 4666 3439 4514 
Q 3959 4363 4331 4000 
Q 4659 3684 4818 3271 
Q 4978 2859 4978 2338 
Q 4978 1809 4818 1395 
Q 4659 981 4331 666 
Q 3956 303 3431 151 
Q 2906 0 1856 0 
L 588 0 
L 588 4666 
z
" transform="scale(0.015625)"/>
     <path id="DejaVuSans-Bold-29" d="M 588 4666 
L 3834 4666 
L 3834 3756 
L 1791 3756 
L 1791 2888 
L 3713 2888 
L 3713 1978 
L 1791 1978 
L 1791 0 
L 588 0 
L 588 4666 
z
" transform="scale(0.015625)"/>
     <path id="DejaVuSans-Bold-3" transform="scale(0.015625)"/>
     <path id="DejaVuSans-Bold-af6" d="M 344 2156 
L 6056 2156 
L 6056 1350 
L 344 1350 
L 344 2156 
z
" transform="scale(0.015625)"/>
     <path id="DejaVuSans-Bold-4b" d="M 4056 2131 
L 4056 0 
L 2931 0 
L 2931 347 
L 2931 1625 
Q 2931 2084 2911 2256 
Q 2891 2428 2841 2509 
Q 2775 2619 2662 2680 
Q 2550 2741 2406 2741 
Q 2056 2741 1856 2470 
Q 1656 2200 1656 1722 
L 1656 0 
L 538 0 
L 538 4863 
L 1656 4863 
L 1656 2988 
Q 1909 3294 2193 3439 
Q 2478 3584 2822 3584 
Q 3428 3584 3742 3212 
Q 4056 2841 4056 2131 
z
" transform="scale(0.015625)"/>
     <path id="DejaVuSans-Bold-52" d="M 2203 2784 
Q 1831 2784 1636 2517 
Q 1441 2250 1441 1747 
Q 1441 1244 1636 976 
Q 1831 709 2203 709 
Q 2569 709 2762 976 
Q 2956 1244 2956 1747 
Q 2956 2250 2762 2517 
Q 2569 2784 2203 2784 
z
M 2203 3584 
Q 3106 3584 3614 3096 
Q 4122 2609 4122 1747 
Q 4122 884 3614 396 
Q 3106 -91 2203 -91 
Q 1297 -91 786 396 
Q 275 884 275 1747 
Q 275 2609 786 3096 
Q 1297 3584 2203 3584 
z
" transform="scale(0.015625)"/>
     <path id="DejaVuSans-Bold-5a" d="M 225 3500 
L 1313 3500 
L 1900 1088 
L 2491 3500 
L 3425 3500 
L 4013 1113 
L 4603 3500 
L 5691 3500 
L 4769 0 
L 3547 0 
L 2956 2406 
L 2369 0 
L 1147 0 
L 225 3500 
z
" transform="scale(0.015625)"/>
     <path id="DejaVuSans-Bold-57" d="M 1759 4494 
L 1759 3500 
L 2913 3500 
L 2913 2700 
L 1759 2700 
L 1759 1216 
Q 1759 972 1856 886 
Q 1953 800 2241 800 
L 2816 800 
L 2816 0 
L 1856 0 
Q 1194 0 917 276 
Q 641 553 641 1216 
L 641 2700 
L 84 2700 
L 84 3500 
L 641 3500 
L 641 4494 
L 1759 4494 
z
" transform="scale(0.015625)"/>
     <path id="DejaVuSans-Bold-55" d="M 3138 2547 
Q 2991 2616 2845 2648 
Q 2700 2681 2553 2681 
Q 2122 2681 1889 2404 
Q 1656 2128 1656 1613 
L 1656 0 
L 538 0 
L 538 3500 
L 1656 3500 
L 1656 2925 
Q 1872 3269 2151 3426 
Q 2431 3584 2822 3584 
Q 2878 3584 2943 3579 
Q 3009 3575 3134 3559 
L 3138 2547 
z
" transform="scale(0.015625)"/>
     <path id="DejaVuSans-Bold-48" d="M 4031 1759 
L 4031 1441 
L 1416 1441 
Q 1456 1047 1700 850 
Q 1944 653 2381 653 
Q 2734 653 3104 758 
Q 3475 863 3866 1075 
L 3866 213 
Q 3469 63 3072 -14 
Q 2675 -91 2278 -91 
Q 1328 -91 801 392 
Q 275 875 275 1747 
Q 275 2603 792 3093 
Q 1309 3584 2216 3584 
Q 3041 3584 3536 3087 
Q 4031 2591 4031 1759 
z
M 2881 2131 
Q 2881 2450 2695 2645 
Q 2509 2841 2209 2841 
Q 1884 2841 1681 2658 
Q 1478 2475 1428 2131 
L 2881 2131 
z
" transform="scale(0.015625)"/>
     <path id="DejaVuSans-Bold-44" d="M 2106 1575 
Q 1756 1575 1579 1456 
Q 1403 1338 1403 1106 
Q 1403 894 1545 773 
Q 1688 653 1941 653 
Q 2256 653 2472 879 
Q 2688 1106 2688 1447 
L 2688 1575 
L 2106 1575 
z
M 3816 1997 
L 3816 0 
L 2688 0 
L 2688 519 
Q 2463 200 2181 54 
Q 1900 -91 1497 -91 
Q 953 -91 614 226 
Q 275 544 275 1050 
Q 275 1666 698 1953 
Q 1122 2241 2028 2241 
L 2688 2241 
L 2688 2328 
Q 2688 2594 2478 2717 
Q 2269 2841 1825 2841 
Q 1466 2841 1156 2769 
Q 847 2697 581 2553 
L 581 3406 
Q 941 3494 1303 3539 
Q 1666 3584 2028 3584 
Q 2975 3584 3395 3211 
Q 3816 2838 3816 1997 
z
" transform="scale(0.015625)"/>
     <path id="DejaVuSans-Bold-47" d="M 2919 2988 
L 2919 4863 
L 4044 4863 
L 4044 0 
L 2919 0 
L 2919 506 
Q 2688 197 2409 53 
Q 2131 -91 1766 -91 
Q 1119 -91 703 423 
Q 288 938 288 1747 
Q 288 2556 703 3070 
Q 1119 3584 1766 3584 
Q 2128 3584 2408 3439 
Q 2688 3294 2919 2988 
z
M 2181 722 
Q 2541 722 2730 984 
Q 2919 1247 2919 1747 
Q 2919 2247 2730 2509 
Q 2541 2772 2181 2772 
Q 1825 2772 1636 2509 
Q 1447 2247 1447 1747 
Q 1447 1247 1636 984 
Q 1825 722 2181 722 
z
" transform="scale(0.015625)"/>
     <path id="DejaVuSans-Bold-4d" d="M 538 3500 
L 1656 3500 
L 1656 63 
Q 1656 -641 1318 -1011 
Q 981 -1381 341 -1381 
L -213 -1381 
L -213 -647 
L -19 -647 
Q 300 -647 419 -503 
Q 538 -359 538 63 
L 538 3500 
z
M 538 4863 
L 1656 4863 
L 1656 3950 
L 538 3950 
L 538 4863 
z
" transform="scale(0.015625)"/>
     <path id="DejaVuSans-Bold-58" d="M 500 1363 
L 500 3500 
L 1625 3500 
L 1625 3150 
Q 1625 2866 1622 2436 
Q 1619 2006 1619 1863 
Q 1619 1441 1641 1255 
Q 1663 1069 1716 984 
Q 1784 875 1895 815 
Q 2006 756 2150 756 
Q 2500 756 2700 1025 
Q 2900 1294 2900 1772 
L 2900 3500 
L 4019 3500 
L 4019 0 
L 2900 0 
L 2900 506 
Q 2647 200 2364 54 
Q 2081 -91 1741 -91 
Q 1134 -91 817 281 
Q 500 653 500 1363 
z
" transform="scale(0.015625)"/>
     <path id="DejaVuSans-Bold-50" d="M 3781 2919 
Q 3994 3244 4286 3414 
Q 4578 3584 4928 3584 
Q 5531 3584 5847 3212 
Q 6163 2841 6163 2131 
L 6163 0 
L 5038 0 
L 5038 1825 
Q 5041 1866 5042 1909 
Q 5044 1953 5044 2034 
Q 5044 2406 4934 2573 
Q 4825 2741 4581 2741 
Q 4263 2741 4089 2478 
Q 3916 2216 3909 1719 
L 3909 0 
L 2784 0 
L 2784 1825 
Q 2784 2406 2684 2573 
Q 2584 2741 2328 2741 
Q 2006 2741 1831 2477 
Q 1656 2213 1656 1722 
L 1656 0 
L 531 0 
L 531 3500 
L 1656 3500 
L 1656 2988 
Q 1863 3284 2130 3434 
Q 2397 3584 2719 3584 
Q 3081 3584 3359 3409 
Q 3638 3234 3781 2919 
z
" transform="scale(0.015625)"/>
     <path id="DejaVuSans-Bold-53" d="M 1656 506 
L 1656 -1331 
L 538 -1331 
L 538 3500 
L 1656 3500 
L 1656 2988 
Q 1888 3294 2169 3439 
Q 2450 3584 2816 3584 
Q 3463 3584 3878 3070 
Q 4294 2556 4294 1747 
Q 4294 938 3878 423 
Q 3463 -91 2816 -91 
Q 2450 -91 2169 54 
Q 1888 200 1656 506 
z
M 2400 2772 
Q 2041 2772 1848 2508 
Q 1656 2244 1656 1747 
Q 1656 1250 1848 986 
Q 2041 722 2400 722 
Q 2759 722 2948 984 
Q 3138 1247 3138 1747 
Q 3138 2247 2948 2509 
Q 2759 2772 2400 2772 
z
" transform="scale(0.015625)"/>
     <path id="DejaVuSans-Bold-4c" d="M 538 3500 
L 1656 3500 
L 1656 0 
L 538 0 
L 538 3500 
z
M 538 4863 
L 1656 4863 
L 1656 3950 
L 538 3950 
L 538 4863 
z
" transform="scale(0.015625)"/>
     <path id="DejaVuSans-Bold-4a" d="M 2919 594 
Q 2688 288 2409 144 
Q 2131 0 1766 0 
Q 1125 0 706 504 
Q 288 1009 288 1791 
Q 288 2575 706 3076 
Q 1125 3578 1766 3578 
Q 2131 3578 2409 3434 
Q 2688 3291 2919 2981 
L 2919 3500 
L 4044 3500 
L 4044 353 
Q 4044 -491 3511 -936 
Q 2978 -1381 1966 -1381 
Q 1638 -1381 1331 -1331 
Q 1025 -1281 716 -1178 
L 716 -306 
Q 1009 -475 1290 -558 
Q 1572 -641 1856 -641 
Q 2406 -641 2662 -400 
Q 2919 -159 2919 353 
L 2919 594 
z
M 2181 2772 
Q 1834 2772 1640 2515 
Q 1447 2259 1447 1791 
Q 1447 1309 1634 1061 
Q 1822 813 2181 813 
Q 2531 813 2725 1069 
Q 2919 1325 2919 1791 
Q 2919 2259 2725 2515 
Q 2531 2772 2181 2772 
z
" transform="scale(0.015625)"/>
     <path id="DejaVuSans-Bold-56" d="M 3272 3391 
L 3272 2541 
Q 2913 2691 2578 2766 
Q 2244 2841 1947 2841 
Q 1628 2841 1473 2761 
Q 1319 2681 1319 2516 
Q 1319 2381 1436 2309 
Q 1553 2238 1856 2203 
L 2053 2175 
Q 2913 2066 3209 1816 
Q 3506 1566 3506 1031 
Q 3506 472 3093 190 
Q 2681 -91 1863 -91 
Q 1516 -91 1145 -36 
Q 775 19 384 128 
L 384 978 
Q 719 816 1070 734 
Q 1422 653 1784 653 
Q 2113 653 2278 743 
Q 2444 834 2444 1013 
Q 2444 1163 2330 1236 
Q 2216 1309 1875 1350 
L 1678 1375 
Q 931 1469 631 1722 
Q 331 1975 331 2491 
Q 331 3047 712 3315 
Q 1094 3584 1881 3584 
Q 2191 3584 2531 3537 
Q 2872 3491 3272 3391 
z
" transform="scale(0.015625)"/>
    </defs>
    <use xlink:href="#DejaVuSans-Bold-28"/>
    <use xlink:href="#DejaVuSans-Bold-26" transform="translate(68.3125 0)"/>
    <use xlink:href="#DejaVuSans-Bold-27" transform="translate(141.703125 0)"/>
    <use xlink:href="#DejaVuSans-Bold-29" transform="translate(224.71875 0)"/>
    <use xlink:href="#DejaVuSans-Bold-3" transform="translate(293.03125 0)"/>
    <use xlink:href="#DejaVuSans-Bold-af6" transform="translate(327.84375 0)"/>
    <use xlink:href="#DejaVuSans-Bold-3" transform="translate(427.84375 0)"/>
    <use xlink:href="#DejaVuSans-Bold-4b" transform="translate(462.65625 0)"/>
    <use xlink:href="#DejaVuSans-Bold-52" transform="translate(533.84375 0)"/>
    <use xlink:href="#DejaVuSans-Bold-5a" transform="translate(602.546875 0)"/>
    <use xlink:href="#DejaVuSans-Bold-3" transform="translate(694.9375 0)"/>
    <use xlink:href="#DejaVuSans-Bold-57" transform="translate(729.75 0)"/>
    <use xlink:href="#DejaVuSans-Bold-52" transform="translate(777.546875 0)"/>
    <use xlink:href="#DejaVuSans-Bold-3" transform="translate(846.25 0)"/>
    <use xlink:href="#DejaVuSans-Bold-55" transform="translate(881.0625 0)"/>
    <use xlink:href="#DejaVuSans-Bold-48" transform="translate(930.375 0)"/>
    <use xlink:href="#DejaVuSans-Bold-44" transform="translate(998.203125 0)"/>
    <use xlink:href="#DejaVuSans-Bold-47" transform="translate(1065.6875 0)"/>
    <use xlink:href="#DejaVuSans-Bold-3" transform="translate(1137.265625 0)"/>
    <use xlink:href="#DejaVuSans-Bold-4d" transform="translate(1172.078125 0)"/>
    <use xlink:href="#DejaVuSans-Bold-58" transform="translate(1206.359375 0)"/>
    <use xlink:href="#DejaVuSans-Bold-50" transform="translate(1277.546875 0)"/>
    <use xlink:href="#DejaVuSans-Bold-53" transform="translate(1381.75 0)"/>
    <use xlink:href="#DejaVuSans-Bold-3" transform="translate(1453.328125 0)"/>
    <use xlink:href="#DejaVuSans-Bold-4b" transform="translate(1488.140625 0)"/>
    <use xlink:href="#DejaVuSans-Bold-48" transform="translate(1559.328125 0)"/>
    <use xlink:href="#DejaVuSans-Bold-4c" transform="translate(1627.15625 0)"/>
    <use xlink:href="#DejaVuSans-Bold-4a" transform="translate(1661.4375 0)"/>
    <use xlink:href="#DejaVuSans-Bold-4b" transform="translate(1733.015625 0)"/>
    <use xlink:href="#DejaVuSans-Bold-57" transform="translate(1804.203125 0)"/>
    <use xlink:href="#DejaVuSans-Bold-56" transform="translate(1852 0)"/>
   </g>
  </g>
 </g>
 <defs>
  <clipPath id="p6841f231a8">
   <rect x="37.332188" y="67.98709" width="206" height="122.73291"/>
  </clipPath>
  <clipPath id="pd1b8a85d66">
   <rect x="283.932187" y="67.98709" width="206" height="122.73291"/>
  </clipPath>
 </defs>
</svg>
